<?xml version="1.0" encoding="UTF-8" standalone="no"?>
<!DOCTYPE svg PUBLIC "-//W3C//DTD SVG 1.1//EN" "http://www.w3.org/Graphics/SVG/1.1/DTD/svg11.dtd">
<svg xmlns="http://www.w3.org/2000/svg" version="1.1" viewBox="0.00 0.00 186.00 117.00">
<path fill="#c20f08" d="
  M 152.01 76.82
  L 145.57 78.27
  A 0.43 0.43 0.0 0 1 145.05 77.80
  L 146.79 63.91
  A 0.75 0.74 85.2 0 1 147.31 63.29
  L 174.67 55.13
  Q 175.21 54.97 175.70 55.24
  L 185.37 60.58
  Q 185.88 60.87 185.77 61.45
  L 181.31 84.01
  A 1.80 1.79 78.0 0 1 180.60 85.11
  L 140.03 114.52
  Q 139.49 114.91 138.82 114.86
  L 128.55 114.10
  Q 127.91 114.05 127.53 113.54
  L 110.45 90.53
  A 1.36 1.33 -59.0 0 1 110.21 89.52
  L 110.36 88.58
  Q 110.48 87.82 109.80 88.16
  L 52.70 116.00
  Q 52.21 116.24 52.22 115.70
  L 52.39 93.99
  Q 52.40 93.51 51.99 93.76
  L 17.56 114.55
  A 2.03 2.03 0.0 0 1 16.02 114.79
  L 5.56 112.20
  A 0.47 0.46 -85.1 0 1 5.21 111.77
  L 0.38 12.49
  A 2.51 2.45 -26.4 0 1 0.99 10.74
  L 6.92 3.90
  Q 7.25 3.51 7.76 3.60
  L 61.22 12.57
  Q 61.96 12.69 61.80 11.96
  L 60.35 5.07
  A 0.32 0.31 88.0 0 1 60.70 4.69
  L 118.18 12.78
  Q 118.74 12.86 118.68 13.43
  L 117.02 30.26
  Q 116.97 30.75 116.49 30.81
  L 104.95 32.20
  Q 104.43 32.27 104.62 32.76
  L 114.50 57.28
  Q 114.98 58.47 115.17 57.21
  L 121.73 14.52
  A 1.37 1.36 -17.3 0 1 122.16 13.71
  L 136.32 0.87
  A 1.25 1.24 30.5 0 1 137.46 0.58
  L 164.78 6.97
  Q 165.21 7.07 165.25 7.52
  L 168.52 47.71
  A 1.42 1.41 -21.6 0 1 167.99 48.93
  L 153.10 60.83
  A 0.62 0.61 -30.6 0 1 152.15 60.59
  L 145.01 43.69
  Q 144.67 42.91 144.63 43.76
  L 142.50 85.74
  Q 142.47 86.36 142.92 85.94
  L 152.20 77.18
  Q 152.77 76.64 152.01 76.82
  Z
  M 81.29 63.72
  A 0.31 0.31 0.0 0 1 81.67 64.06
  L 79.76 77.08
  A 0.31 0.31 0.0 0 0 80.17 77.42
  L 93.74 72.90
  A 0.31 0.31 0.0 0 0 93.94 72.54
  L 85.60 33.15
  A 0.31 0.31 0.0 0 0 85.33 32.91
  L 66.03 30.24
  A 0.31 0.31 0.0 0 0 65.73 30.36
  L 56.37 43.39
  A 0.31 0.31 0.0 0 1 56.03 43.51
  L 44.41 40.10
  A 0.31 0.31 0.0 0 1 44.20 39.75
  L 44.67 36.98
  A 0.31 0.31 0.0 0 0 44.43 36.62
  L 22.70 32.15
  A 0.31 0.31 0.0 0 0 22.34 32.53
  L 24.35 40.46
  A 0.31 0.31 0.0 0 0 24.64 40.69
  L 36.27 41.28
  A 0.31 0.31 0.0 0 1 36.56 41.53
  L 40.05 59.39
  A 0.31 0.31 0.0 0 1 39.96 59.67
  L 35.60 64.04
  A 0.31 0.31 0.0 0 1 35.36 64.13
  L 26.94 63.62
  A 0.31 0.31 0.0 0 0 26.61 63.98
  L 29.29 80.61
  A 0.31 0.31 0.0 0 0 29.72 80.84
  L 65.52 65.34
  A 0.31 0.31 0.0 0 1 65.95 65.62
  L 65.98 72.22
  A 0.31 0.31 0.0 0 0 66.54 72.39
  L 70.48 66.43
  A 0.31 0.31 0.0 0 1 70.67 66.30
  L 81.29 63.72
  Z"
/>
</svg>
