<?xml version="1.0" encoding="UTF-8" standalone="no"?>
<!DOCTYPE svg PUBLIC "-//W3C//DTD SVG 1.1//EN" "http://www.w3.org/Graphics/SVG/1.1/DTD/svg11.dtd">
<svg xmlns="http://www.w3.org/2000/svg" version="1.1" viewBox="0.00 0.00 500.00 1500.00">
<g stroke-width="2.00" fill="none" stroke-linecap="butt">
<path stroke="#f3f3f3" stroke-opacity="0.525" vector-effect="non-scaling-stroke" d="
  M 135.79 558.73
  L 134.23 560.40
  Q 133.89 560.76 133.88 561.26
  C 133.81 563.32 133.79 565.18 134.22 567.23
  C 136.36 577.70 138.53 588.24 141.15 598.85
  Q 148.00 626.55 154.84 654.46
  C 155.73 658.08 157.03 659.60 160.64 660.09
  Q 193.08 664.52 225.47 668.97
  Q 226.35 669.09 226.54 669.97
  L 255.65 807.52
  Q 255.77 808.09 255.22 808.27
  L 214.42 821.91
  Q 213.93 822.08 214.01 821.56
  Q 216.90 801.76 219.84 781.97
  C 220.08 780.37 219.92 778.68 219.97 777.07
  A 1.29 1.26 -67.4 0 0 219.59 776.11
  L 217.76 774.27
  Q 217.32 773.83 216.70 773.83
  C 214.53 773.83 212.50 773.70 210.37 774.23
  Q 192.70 778.67 174.75 782.85
  C 172.94 783.27 171.30 785.09 170.33 786.53
  Q 163.89 796.14 157.64 805.63
  C 156.82 806.86 155.67 807.76 154.90 808.91
  Q 129.85 846.85 104.78 884.80
  Q 104.50 885.21 104.52 885.71
  Q 104.72 891.29 104.65 897.43
  Q 104.37 924.82 104.24 951.52
  C 104.21 957.63 103.84 963.77 104.04 969.90
  C 104.10 971.56 105.56 973.08 107.27 973.12
  Q 111.21 973.20 112.99 972.50
  Q 115.70 971.43 118.67 969.98
  Q 215.62 922.68 312.50 875.37
  Q 317.75 872.80 322.42 870.78
  A 4.74 4.73 82.7 0 0 325.23 867.13
  Q 332.72 817.39 341.23 760.66
  C 341.52 758.75 341.55 756.97 341.47 755.06
  Q 341.45 754.53 341.11 754.13
  Q 340.43 753.33 340.08 752.44
  Q 322.44 708.33 305.55 666.75
  Q 305.40 666.39 305.79 666.34
  L 344.58 661.68
  A 5.39 5.38 -0.5 0 0 349.29 656.90
  Q 352.64 625.01 355.06 597.32
  Q 355.30 594.60 355.24 591.04
  Q 355.24 590.51 354.86 590.13
  L 352.78 588.02
  Q 352.42 587.65 351.91 587.58
  Q 249.46 573.11 147.00 558.72
  Q 140.51 557.81 135.70 558.34"
/>
<path stroke="#f3f3f3" stroke-opacity="0.525" vector-effect="non-scaling-stroke" d="
  M 208.85 327.59
  Q 220.30 328.48 232.01 329.07
  Q 236.60 329.30 238.33 329.20
  Q 238.84 329.17 239.20 328.81
  L 256.68 311.39
  Q 257.07 311.00 257.13 310.45
  Q 257.51 306.87 257.29 305.74
  Q 250.89 273.02 244.72 241.51
  A 5.06 5.06 0.0 0 0 240.02 237.43
  L 200.05 235.39
  Q 199.58 235.36 199.46 234.90
  L 194.09 213.99
  Q 193.97 213.52 194.44 213.62
  L 264.91 228.09
  A 0.65 0.65 0.0 0 1 265.24 229.19
  L 265.03 229.39
  A 1.02 0.96 -22.7 0 0 264.75 230.02
  L 264.28 236.72
  A 4.64 4.63 10.2 0 0 267.61 241.49
  Q 287.79 247.37 307.69 253.28
  C 309.80 253.90 311.88 253.81 314.02 253.74
  Q 314.51 253.72 314.86 253.36
  Q 317.18 251.00 318.46 249.22
  Q 333.45 228.49 350.20 205.23
  Q 350.99 204.14 352.14 202.89
  Q 352.47 202.53 352.51 202.03
  Q 352.74 199.43 352.40 198.00
  Q 344.69 165.63 337.43 134.71
  Q 337.31 134.19 336.82 133.96
  Q 335.92 133.54 335.41 132.70
  Q 335.07 132.12 334.40 132.13
  C 332.47 132.16 330.59 132.13 328.68 131.81
  Q 234.38 115.95 139.13 100.01
  C 136.60 99.58 134.03 99.70 131.49 99.77
  Q 130.98 99.79 130.61 100.12
  Q 128.90 101.63 127.60 103.11
  Q 117.19 115.03 106.16 127.85
  C 103.23 131.26 103.89 136.66 104.09 140.80
  Q 112.64 316.60 121.60 500.40
  Q 121.67 501.93 122.64 503.16
  Q 123.95 504.84 126.23 505.38
  Q 145.32 509.96 163.08 514.55
  C 165.82 515.26 169.18 515.35 171.73 513.82
  Q 235.04 475.70 298.24 437.75
  C 300.12 436.62 301.83 434.96 303.03 433.14
  Q 327.14 396.90 351.88 359.65
  Q 352.80 358.27 352.69 356.69
  Q 352.56 354.77 352.43 352.88
  Q 351.68 342.69 352.06 330.75
  Q 352.10 329.51 351.92 328.40
  Q 351.85 327.97 351.53 327.65
  L 349.55 325.70
  Q 349.15 325.31 348.58 325.30
  C 346.81 325.29 345.27 325.02 343.56 325.76
  Q 280.64 352.99 217.78 380.24
  Q 217.32 380.44 217.25 379.95
  Q 213.40 354.32 209.03 328.68
  Q 208.99 328.49 208.90 328.34
  Q 208.79 328.15 208.65 327.99
  Q 208.26 327.54 208.85 327.59"
/>
<path stroke="#ea8d8b" vector-effect="non-scaling-stroke" d="
  M 200.51 321.75
  C 201.97 320.56 202.40 319.02 204.65 319.16
  Q 219.98 320.17 234.23 320.97
  A 1.62 1.58 -65.5 0 0 235.45 320.50
  L 248.49 307.50
  A 0.81 0.81 0.0 0 0 248.71 306.76
  L 236.83 245.97
  Q 236.73 245.44 236.19 245.42
  L 196.42 243.36
  A 5.21 5.20 84.2 0 1 191.64 239.46
  Q 188.35 226.83 185.02 213.47
  C 184.51 211.40 184.56 209.50 184.56 207.40
  A 0.90 0.86 67.2 0 1 184.79 206.80
  L 186.86 204.57
  A 0.98 0.97 20.2 0 1 187.56 204.25
  C 189.41 204.21 191.14 204.14 192.97 204.52
  Q 232.61 212.69 269.82 220.31
  C 271.45 220.65 272.57 221.78 273.56 223.05
  Q 273.87 223.44 273.89 223.95
  Q 274.04 228.93 273.00 233.14
  Q 272.82 233.85 273.52 234.06
  L 310.30 244.85
  A 0.58 0.58 0.0 0 0 310.94 244.63
  L 343.34 199.55
  Q 343.69 199.05 343.55 198.45
  L 329.98 141.03
  Q 329.89 140.62 329.46 140.55
  L 135.48 108.01
  Q 134.89 107.91 134.50 108.36
  Q 124.06 120.29 113.66 132.44
  C 111.75 134.68 112.10 138.37 112.27 141.82
  Q 120.84 317.16 129.44 492.50
  Q 129.54 494.56 129.56 496.73
  Q 129.56 497.18 129.99 497.29
  L 166.27 506.28
  Q 166.73 506.39 167.13 506.15
  L 293.78 429.98
  A 6.04 5.97 -88.3 0 0 295.68 428.17
  L 343.96 355.51
  Q 344.34 354.94 344.30 354.25
  Q 343.73 345.34 344.10 335.89
  Q 344.12 335.23 343.52 335.49
  Q 281.32 362.38 218.85 389.46
  C 217.00 390.26 215.12 390.05 213.20 390.05
  A 1.46 1.40 -25.4 0 1 212.33 389.76
  Q 210.01 387.99 209.84 386.92
  Q 205.66 360.41 200.52 329.10
  C 200.17 326.98 200.16 324.83 200.08 322.70
  Q 200.06 322.11 200.51 321.75"
/>
<path stroke="#ea8d8b" vector-effect="non-scaling-stroke" d="
  M 296.20 661.18
  L 298.15 659.22
  Q 298.59 658.78 299.21 658.71
  L 340.71 653.66
  Q 341.28 653.60 341.34 653.02
  L 346.97 595.58
  A 0.21 0.21 0.0 0 0 346.79 595.35
  L 143.10 566.67
  Q 142.56 566.60 142.78 567.10
  Q 143.27 568.23 143.61 569.93
  Q 146.04 582.33 149.33 595.59
  Q 156.25 623.49 163.12 651.38
  Q 163.24 651.88 163.75 651.95
  L 229.96 661.11
  A 5.25 5.24 -2.0 0 1 234.37 665.22
  Q 249.40 736.28 264.20 806.00
  C 264.65 808.12 264.61 810.15 264.57 812.27
  Q 264.56 812.76 264.22 813.12
  C 262.99 814.40 262.01 815.34 260.23 815.93
  Q 236.56 823.81 213.75 831.44
  Q 211.81 832.09 207.93 831.68
  Q 207.42 831.63 207.06 831.27
  L 205.42 829.62
  Q 205.05 829.26 205.02 828.74
  Q 204.86 825.99 205.18 823.76
  Q 208.00 804.27 211.01 783.59
  Q 211.08 783.07 210.57 783.20
  L 178.26 791.01
  A 1.04 1.01 -79.1 0 0 177.63 791.45
  Q 171.42 800.91 165.14 810.40
  C 164.31 811.65 163.19 812.52 162.38 813.74
  Q 135.51 854.31 113.06 888.37
  Q 112.73 888.87 112.73 889.46
  L 112.14 963.03
  A 0.08 0.08 0.0 0 0 112.26 963.10
  L 316.78 863.38
  Q 317.23 863.17 317.30 862.68
  L 332.89 759.01
  Q 332.98 758.41 332.75 757.85
  Q 314.37 712.51 296.35 667.59
  Q 295.47 665.41 295.80 662.03
  Q 295.85 661.53 296.20 661.18"
/>
<path stroke="#f3f3f3" stroke-opacity="0.525" vector-effect="non-scaling-stroke" d="
  M 257.59 1233.34
  Q 278.35 1216.92 297.88 1201.17
  Q 299.97 1199.49 301.86 1196.94
  Q 302.16 1196.54 302.18 1196.05
  Q 302.37 1191.12 302.24 1189.50
  Q 296.52 1119.60 290.44 1044.26
  A 5.80 5.79 -85.8 0 0 285.98 1039.08
  Q 239.77 1028.26 191.41 1016.91
  Q 185.50 1015.52 179.90 1016.13
  A 2.58 2.58 0.0 0 0 178.45 1016.78
  Q 159.52 1033.87 140.20 1051.46
  C 138.36 1053.14 135.00 1054.64 135.00 1057.52
  Q 135.06 1240.52 134.99 1422.10
  Q 134.99 1422.91 135.47 1423.56
  Q 140.11 1429.92 144.91 1435.99
  Q 147.26 1438.98 150.06 1439.17
  Q 168.60 1440.45 188.72 1442.05
  C 191.61 1442.28 194.20 1442.06 196.74 1440.28
  Q 200.97 1437.30 205.34 1434.12
  Q 274.26 1383.97 343.46 1334.03
  C 345.98 1332.21 348.61 1329.61 349.22 1326.55
  Q 357.35 1285.20 364.37 1249.69
  Q 365.33 1244.82 364.96 1238.78
  Q 364.93 1238.29 364.62 1237.90
  Q 362.99 1235.88 361.04 1234.80
  Q 345.64 1226.29 328.54 1216.80
  Q 325.81 1215.28 323.04 1215.19
  Q 319.66 1215.07 316.12 1216.11
  Q 285.94 1224.99 257.73 1233.60
  Q 256.97 1233.83 257.59 1233.34"
/>
<path stroke="#ea8d8b" vector-effect="non-scaling-stroke" d="
  M 242.25 1296.45
  Q 242.86 1296.64 242.87 1297.28
  L 242.90 1300.92
  Q 242.90 1301.59 242.42 1302.05
  L 206.69 1335.79
  Q 206.30 1336.16 205.77 1336.23
  Q 203.69 1336.51 202.01 1336.17
  C 199.94 1335.74 198.88 1333.73 198.98 1331.65
  Q 203.02 1252.81 206.88 1176.27
  C 206.96 1174.61 208.98 1173.06 210.61 1173.03
  Q 211.94 1173.00 213.13 1173.05
  Q 213.62 1173.07 213.98 1173.40
  Q 215.88 1175.11 216.36 1176.24
  Q 228.66 1205.48 241.08 1234.76
  Q 241.28 1235.26 241.70 1234.92
  L 293.39 1193.64
  A 1.93 1.90 68.7 0 0 294.10 1191.99
  L 282.38 1047.55
  Q 282.34 1047.10 281.90 1047.00
  L 184.49 1024.21
  A 2.26 2.24 -59.4 0 0 182.46 1024.74
  L 143.96 1059.65
  A 2.75 2.74 -21.1 0 0 143.05 1061.69
  L 143.05 1417.92
  Q 143.05 1418.93 143.66 1419.75
  L 151.32 1429.96
  A 3.01 2.98 73.6 0 0 153.50 1431.16
  L 188.74 1433.74
  A 4.94 4.94 0.0 0 0 192.00 1432.81
  Q 265.47 1379.53 339.21 1326.10
  Q 340.73 1325.00 341.10 1323.13
  Q 348.83 1283.79 356.82 1243.62
  A 1.25 1.24 19.9 0 0 356.19 1242.28
  L 322.53 1223.71
  A 1.22 1.20 -38.0 0 0 321.60 1223.60
  L 223.07 1253.00
  Q 222.63 1253.14 222.57 1253.60
  Q 219.81 1276.52 216.96 1298.24
  Q 216.93 1298.40 216.85 1298.54
  Q 216.76 1298.68 216.69 1298.82
  Q 216.45 1299.26 216.93 1299.14
  Q 226.21 1296.97 235.01 1295.04
  Q 237.37 1294.52 240.37 1294.78
  Q 240.93 1294.83 241.13 1295.36
  Q 241.42 1296.17 242.25 1296.45"
/>
<path stroke="#f3f3f3" stroke-opacity="0.525" vector-effect="non-scaling-stroke" d="
  M 209.50 1291.28
  Q 211.46 1273.64 213.49 1256.48
  Q 213.84 1253.56 214.24 1250.81
  C 214.62 1248.21 216.80 1245.78 219.12 1245.06
  Q 225.33 1243.10 233.43 1240.83
  Q 233.94 1240.69 233.73 1240.20
  L 214.35 1194.49
  Q 214.08 1193.86 214.06 1194.55
  C 213.57 1210.24 212.29 1227.40 211.74 1243.99
  Q 210.97 1267.24 209.00 1291.39
  Q 208.99 1291.41 209.01 1291.41
  L 209.31 1291.44
  Q 209.48 1291.45 209.50 1291.28"
/>
<path stroke="#f3f3f3" stroke-opacity="0.525" vector-effect="non-scaling-stroke" d="
  M 217.81 1307.81
  C 215.94 1308.24 213.95 1308.09 212.01 1308.15
  Q 211.48 1308.17 211.05 1307.87
  Q 209.61 1306.88 208.58 1304.78
  Q 208.53 1304.68 208.52 1304.79
  L 207.58 1322.98
  Q 207.56 1323.48 207.90 1323.11
  Q 208.44 1322.52 208.99 1321.98
  Q 215.98 1315.13 225.16 1306.70
  Q 225.89 1306.03 224.92 1306.23
  Q 220.98 1307.06 217.81 1307.81"
/>
</g>
<path fill="#000000" fill-opacity="0.051" d="
  M 123.11 506.23
  A 3.10 3.08 -1.1 0 0 121.95 505.12
  Q 120.47 504.31 120.23 502.69
  Q 120.16 502.17 119.77 501.82
  Q 118.52 500.69 117.80 499.16
  Q 117.58 498.68 117.11 498.44
  Q 113.87 496.74 110.16 496.04
  Q 109.62 495.94 109.21 495.56
  Q 106.50 493.08 104.06 489.51
  Q 103.22 488.28 103.07 486.75
  Q 102.88 484.72 102.99 482.83
  Q 103.21 479.22 103.11 475.78
  Q 103.10 475.21 102.59 474.94
  Q 102.46 474.87 102.34 474.79
  Q 102.12 474.66 102.12 474.40
  Q 102.12 464.88 102.13 454.93
  Q 102.13 454.48 101.88 454.11
  Q 101.79 453.98 101.64 453.94
  Q 101.11 453.82 101.11 453.28
  Q 101.13 443.98 101.12 434.90
  Q 101.12 434.47 100.89 434.12
  Q 100.81 433.99 100.66 433.95
  Q 100.12 433.83 100.12 433.28
  Q 100.13 423.50 100.12 413.92
  Q 100.12 413.49 99.88 413.13
  Q 99.77 412.96 99.57 412.91
  Q 99.11 412.80 99.11 412.33
  Q 99.13 402.97 99.12 393.90
  Q 99.12 393.47 98.89 393.12
  Q 98.80 392.99 98.65 392.95
  Q 98.12 392.83 98.12 392.28
  Q 98.13 382.50 98.12 372.92
  Q 98.12 372.49 97.88 372.13
  Q 97.77 371.96 97.57 371.91
  Q 97.11 371.80 97.11 371.33
  Q 97.13 361.97 97.12 352.90
  Q 97.12 352.47 96.89 352.12
  Q 96.81 351.99 96.65 351.95
  Q 96.11 351.83 96.12 351.28
  Q 96.13 341.46 96.12 331.94
  Q 96.12 331.50 95.87 331.12
  Q 95.79 330.99 95.65 330.95
  Q 95.12 330.80 95.12 330.25
  L 95.12 311.00
  A 1.57 1.08 -72.4 0 0 94.85 310.11
  Q 94.73 309.95 94.53 309.89
  Q 94.06 309.74 94.07 309.24
  Q 94.30 298.12 93.90 287.53
  Q 93.89 287.21 93.67 286.99
  Q 93.55 286.86 93.38 286.86
  Q 93.11 286.85 93.11 286.58
  Q 93.13 278.75 93.12 270.93
  Q 93.12 270.47 92.88 270.11
  Q 92.80 269.98 92.65 269.95
  Q 92.11 269.83 92.11 269.29
  Q 92.13 259.47 92.12 249.94
  Q 92.12 249.50 91.87 249.12
  Q 91.79 248.99 91.63 248.94
  Q 91.11 248.80 91.11 248.26
  Q 91.13 238.48 91.12 228.91
  Q 91.12 228.49 90.88 228.13
  Q 90.77 227.96 90.57 227.91
  Q 90.11 227.80 90.11 227.33
  Q 90.13 217.97 90.12 208.90
  Q 90.12 208.47 89.89 208.12
  Q 89.81 207.99 89.66 207.95
  Q 89.11 207.83 89.11 207.27
  Q 89.13 197.47 89.12 187.93
  Q 89.12 187.49 88.87 187.12
  Q 88.79 186.99 88.63 186.95
  Q 88.12 186.80 88.12 186.26
  Q 88.13 176.49 88.12 166.90
  Q 88.12 166.47 87.87 166.11
  Q 87.80 166.00 87.66 165.96
  Q 87.12 165.81 87.12 165.25
  L 87.12 144.90
  Q 87.12 144.66 86.96 144.49
  Q 86.84 144.37 86.86 144.21
  Q 86.86 144.18 87.01 144.14
  L 87.49 144.02
  Q 88.06 143.88 88.09 143.29
  Q 88.28 140.44 87.95 137.73
  Q 87.89 137.25 88.26 136.95
  Q 89.73 135.76 88.96 133.75
  A 0.84 0.82 53.6 0 1 89.07 132.96
  Q 89.22 132.75 89.42 132.63
  Q 89.89 132.37 89.80 131.83
  Q 89.69 131.24 89.80 130.56
  Q 89.89 129.99 90.46 129.90
  Q 91.40 129.74 91.12 128.79
  A 0.61 0.60 63.8 0 1 91.34 128.13
  Q 92.61 127.17 91.97 125.65
  A 0.51 0.51 0.0 0 1 92.42 124.94
  Q 93.20 124.90 93.13 124.18
  Q 93.06 123.61 93.47 123.20
  L 94.93 121.70
  A 0.76 0.73 -25.8 0 0 95.14 121.14
  Q 95.14 120.95 95.09 120.78
  Q 95.03 120.54 95.21 120.36
  L 96.87 118.80
  Q 97.12 118.56 97.12 118.21
  L 97.12 117.71
  Q 97.12 117.45 97.31 117.27
  L 98.87 115.80
  Q 99.12 115.56 99.12 115.21
  L 99.12 114.75
  Q 99.12 114.49 99.31 114.30
  L 103.91 109.73
  A 0.80 0.79 67.0 0 0 104.13 109.18
  Q 104.13 109.02 104.11 108.85
  Q 104.08 108.54 104.30 108.32
  L 114.31 98.31
  Q 114.59 98.03 114.97 98.08
  Q 115.15 98.10 115.32 98.11
  Q 115.54 98.12 115.70 97.96
  L 118.19 95.42
  Q 118.54 95.06 119.04 95.12
  Q 119.89 95.22 120.16 94.40
  Q 120.28 94.00 120.68 94.11
  Q 121.67 94.37 122.11 93.49
  Q 122.38 92.94 122.98 93.12
  Q 123.67 93.33 123.95 92.67
  A 1.01 1.00 18.0 0 1 125.09 92.09
  Q 125.79 92.24 126.07 91.59
  Q 126.38 90.87 127.14 91.09
  Q 128.38 91.45 129.06 90.56
  Q 129.40 90.12 129.95 90.12
  L 133.20 90.12
  Q 133.70 90.12 133.93 89.68
  Q 134.19 89.17 134.74 89.13
  Q 143.05 88.58 151.36 88.95
  Q 151.76 88.96 152.10 89.15
  Q 152.26 89.25 152.42 89.38
  Q 152.78 89.70 153.26 89.71
  L 158.50 89.92
  Q 158.89 89.93 158.90 90.32
  Q 158.94 91.14 159.76 91.13
  Q 161.75 91.10 164.03 90.83
  A 1.02 1.01 -25.5 0 1 164.88 91.13
  L 165.16 91.41
  Q 165.41 91.65 165.75 91.70
  Q 167.83 91.98 170.06 91.74
  Q 170.57 91.68 170.92 92.05
  Q 171.03 92.18 171.08 92.34
  Q 171.22 92.80 171.70 92.81
  L 176.75 92.89
  Q 177.48 92.90 177.02 93.61
  Q 176.93 93.74 177.05 93.86
  Q 177.23 94.02 177.47 94.01
  Q 179.45 93.97 181.91 93.81
  Q 182.80 93.75 183.33 94.44
  Q 183.60 94.79 184.02 94.86
  Q 185.56 95.12 187.01 94.73
  Q 187.59 94.57 187.40 95.13
  Q 187.33 95.33 187.63 95.51
  Q 187.76 95.58 187.91 95.59
  L 194.53 95.96
  Q 194.93 95.98 195.19 96.28
  Q 195.29 96.39 195.37 96.52
  Q 195.52 96.74 195.78 96.75
  L 200.13 96.91
  Q 200.43 96.92 200.72 96.99
  Q 201.43 97.15 201.41 97.60
  Q 201.40 97.74 201.54 97.75
  L 206.29 97.91
  Q 206.84 97.93 206.94 98.47
  Q 207.08 99.21 207.90 99.17
  Q 210.01 99.04 212.03 98.84
  Q 212.54 98.78 212.90 99.15
  L 213.16 99.41
  Q 213.49 99.74 213.96 99.76
  Q 216.05 99.84 218.04 99.72
  Q 218.62 99.69 218.97 100.10
  Q 219.05 100.21 219.09 100.34
  Q 219.28 101.01 219.97 100.91
  Q 221.68 100.65 223.32 101.09
  Q 223.79 101.21 223.98 101.67
  Q 224.05 101.84 224.19 101.97
  Q 224.38 102.14 224.63 102.13
  L 228.81 101.93
  Q 229.29 101.91 229.70 102.15
  Q 232.03 103.52 235.20 102.91
  Q 235.89 102.77 236.20 103.38
  Q 236.42 103.82 236.91 103.84
  Q 239.02 103.95 241.04 103.80
  Q 241.82 103.74 242.23 104.32
  Q 242.50 104.71 242.98 104.73
  L 247.70 104.91
  Q 248.14 104.93 248.22 105.36
  Q 248.24 105.52 248.37 105.64
  Q 248.45 105.72 248.57 105.72
  L 253.13 105.90
  Q 253.61 105.92 253.92 106.28
  Q 255.14 107.67 257.35 107.04
  Q 259.15 106.52 260.63 107.57
  Q 261.03 107.86 261.52 107.86
  Q 263.53 107.88 265.39 107.87
  Q 265.88 107.86 266.25 108.11
  Q 266.40 108.21 266.44 108.39
  Q 266.53 108.86 267.01 108.86
  L 271.06 108.83
  Q 271.58 108.83 271.80 109.30
  L 271.96 109.64
  Q 272.22 110.20 272.83 110.12
  Q 275.19 109.81 277.32 109.94
  Q 277.90 109.97 278.38 110.50
  Q 278.76 110.92 279.33 110.91
  Q 281.52 110.84 283.55 110.92
  Q 284.03 110.94 284.26 111.38
  Q 284.49 111.83 285.00 111.85
  Q 287.02 111.94 289.12 111.80
  Q 289.86 111.75 290.24 112.32
  Q 290.50 112.71 290.97 112.73
  L 295.53 112.91
  Q 296.05 112.93 296.24 113.41
  Q 296.43 113.92 296.99 113.87
  Q 299.24 113.68 301.36 113.96
  Q 301.87 114.03 302.04 114.51
  Q 302.32 115.29 303.17 115.19
  Q 305.00 114.96 306.78 114.82
  Q 307.68 114.75 308.34 115.36
  Q 308.70 115.70 309.19 115.72
  L 313.67 115.91
  Q 314.16 115.94 314.42 116.36
  Q 315.14 117.53 316.19 116.79
  Q 316.51 116.57 316.86 116.74
  Q 317.50 117.05 318.17 116.87
  Q 318.65 116.74 318.87 117.17
  L 319.14 117.70
  Q 319.35 118.12 319.82 118.12
  L 323.26 118.12
  Q 323.75 118.12 323.91 118.58
  Q 323.98 118.78 324.15 118.90
  A 1.55 0.82 -13.4 0 0 325.00 119.12
  L 328.08 119.12
  Q 328.59 119.12 328.90 119.53
  Q 329.61 120.47 330.94 120.09
  A 0.81 0.80 65.5 0 1 331.86 120.44
  Q 332.53 121.51 333.88 121.08
  A 0.89 0.88 -21.6 0 1 334.93 121.53
  Q 335.34 122.36 336.28 122.10
  Q 336.68 121.99 336.83 122.38
  Q 337.17 123.31 338.15 123.09
  Q 338.70 122.97 338.89 123.50
  Q 339.15 124.22 339.92 124.12
  Q 340.44 124.04 340.81 124.42
  L 342.16 125.81
  Q 342.53 126.19 343.06 126.13
  Q 343.19 126.11 343.35 126.09
  Q 343.67 126.05 343.63 126.37
  Q 343.58 126.76 343.67 127.16
  Q 343.80 127.73 344.38 127.66
  Q 345.02 127.59 345.47 128.06
  Q 347.46 130.14 349.59 132.18
  Q 349.89 132.47 349.90 132.89
  Q 349.91 133.02 349.88 133.15
  Q 349.82 133.48 350.05 133.71
  L 351.59 135.20
  Q 351.94 135.55 351.88 136.03
  Q 351.78 136.89 352.60 137.16
  Q 353.00 137.28 352.89 137.69
  Q 352.63 138.67 353.50 139.11
  Q 354.08 139.39 353.88 140.00
  Q 353.67 140.65 354.27 140.91
  Q 355.07 141.26 354.90 142.12
  Q 354.77 142.81 355.42 143.06
  A 0.87 0.86 19.8 0 1 355.93 144.13
  Q 355.52 145.37 356.46 146.09
  Q 357.17 146.64 356.92 147.50
  Q 356.43 149.26 357.58 150.17
  Q 358.02 150.52 357.89 151.06
  Q 357.55 152.44 358.52 153.14
  Q 358.94 153.45 358.91 153.97
  Q 358.86 155.01 358.87 156.06
  Q 358.88 156.48 359.08 156.86
  Q 359.16 157.03 359.34 157.06
  Q 359.92 157.16 359.90 157.74
  Q 359.86 158.99 359.87 160.12
  Q 359.87 160.53 360.10 160.87
  Q 360.20 161.02 360.37 161.06
  Q 360.90 161.16 360.89 161.70
  Q 360.86 163.52 360.87 165.11
  Q 360.87 165.51 361.12 165.87
  Q 361.21 166.01 361.37 166.05
  Q 361.91 166.19 361.90 166.75
  Q 361.86 168.00 361.87 169.12
  Q 361.88 169.52 362.12 169.88
  Q 362.21 170.01 362.35 170.04
  Q 362.92 170.17 362.90 170.74
  Q 362.86 172.00 362.87 173.12
  Q 362.87 173.53 363.12 173.88
  Q 363.19 173.99 363.32 174.02
  Q 363.92 174.16 363.90 174.77
  Q 363.86 176.00 363.87 177.11
  Q 363.87 177.53 364.10 177.87
  Q 364.20 178.02 364.38 178.06
  Q 364.90 178.17 364.89 178.70
  Q 364.86 180.52 364.87 182.11
  Q 364.88 182.51 365.12 182.87
  Q 365.21 183.01 365.37 183.05
  Q 365.91 183.19 365.90 183.75
  Q 365.86 185.00 365.87 186.12
  Q 365.88 186.52 366.12 186.87
  Q 366.20 187.00 366.33 187.04
  Q 366.88 187.19 366.88 187.75
  L 366.88 194.00
  A 1.63 1.05 -72.4 0 0 367.11 194.85
  Q 367.20 194.98 367.36 195.03
  Q 367.89 195.19 367.89 195.74
  L 367.91 203.24
  Q 367.91 203.83 367.35 203.99
  Q 367.11 204.06 366.99 204.29
  Q 366.88 204.50 366.88 204.73
  Q 366.86 206.76 366.90 208.76
  Q 366.91 209.29 366.65 209.75
  Q 365.87 211.15 365.94 212.94
  Q 365.97 213.55 365.48 213.91
  Q 364.53 214.59 364.91 215.86
  Q 365.13 216.61 364.42 216.92
  Q 363.77 217.21 363.90 217.93
  Q 364.05 218.71 363.33 219.03
  Q 362.65 219.34 362.89 220.05
  A 0.67 0.66 68.3 0 1 362.54 220.88
  Q 361.60 221.31 361.90 222.29
  A 0.45 0.45 0.0 0 1 361.60 222.85
  Q 360.77 223.11 360.88 223.95
  Q 360.95 224.45 360.59 224.80
  L 359.13 226.22
  Q 358.88 226.46 358.88 226.81
  L 358.88 227.29
  Q 358.88 227.55 358.69 227.73
  L 357.20 229.14
  Q 356.93 229.39 356.87 229.76
  Q 356.83 229.96 356.88 230.15
  Q 356.95 230.48 356.71 230.71
  L 355.13 232.20
  Q 354.88 232.44 354.88 232.79
  L 354.88 233.26
  Q 354.88 233.53 354.69 233.71
  L 352.10 236.25
  A 0.75 0.75 0.0 0 0 351.88 236.78
  L 351.88 237.29
  Q 351.88 237.55 351.69 237.73
  L 350.13 239.20
  Q 349.88 239.44 349.88 239.79
  L 349.88 240.27
  Q 349.88 240.53 349.69 240.71
  L 347.17 243.19
  Q 346.90 243.45 346.86 243.81
  Q 346.84 243.98 346.88 244.16
  Q 346.95 244.48 346.71 244.71
  L 345.13 246.20
  Q 344.88 246.44 344.88 246.79
  L 344.88 247.26
  Q 344.88 247.53 344.69 247.71
  L 342.17 250.19
  Q 341.90 250.45 341.86 250.81
  Q 341.84 250.98 341.88 251.16
  Q 341.95 251.48 341.71 251.71
  L 340.13 253.20
  Q 339.88 253.44 339.88 253.79
  L 339.88 254.27
  Q 339.88 254.54 339.69 254.72
  L 337.00 257.34
  Q 336.64 257.69 336.14 257.65
  Q 334.31 257.50 333.11 258.85
  Q 330.21 262.09 326.82 264.63
  Q 325.35 265.72 324.08 267.21
  Q 322.68 268.84 321.04 269.71
  Q 319.70 270.42 318.51 271.37
  Q 318.15 271.65 317.70 271.64
  Q 316.58 271.62 315.91 272.48
  Q 315.57 272.92 315.02 272.91
  Q 312.52 272.86 309.96 272.87
  Q 309.49 272.87 309.11 273.12
  Q 308.98 273.20 308.95 273.34
  Q 308.81 273.88 308.25 273.88
  L 304.75 273.88
  Q 304.26 273.88 304.08 273.43
  Q 303.99 273.18 303.76 273.05
  Q 303.44 272.88 303.08 272.88
  L 296.75 272.88
  Q 296.26 272.88 296.09 272.42
  Q 295.93 271.99 295.30 271.88
  Q 295.29 271.88 295.28 271.88
  L 291.71 271.88
  A 0.67 0.67 0.0 0 1 291.08 271.44
  Q 291.01 271.23 290.84 271.10
  Q 290.55 270.86 290.19 270.98
  Q 288.76 271.48 288.01 270.31
  Q 287.73 269.88 287.22 269.88
  L 284.93 269.88
  Q 284.40 269.88 284.08 269.45
  Q 283.39 268.54 282.06 268.91
  Q 281.48 269.07 281.15 268.56
  Q 280.46 267.50 279.03 267.90
  Q 278.29 268.11 278.06 267.38
  Q 278.01 267.20 277.85 267.10
  Q 277.47 266.86 277.02 266.86
  Q 273.97 266.90 270.81 266.87
  A 1.84 1.83 89.4 0 0 268.96 268.77
  Q 268.98 269.64 268.38 269.95
  Q 267.88 270.21 267.88 270.77
  L 267.88 275.25
  Q 267.88 275.81 268.39 276.04
  Q 268.54 276.10 268.67 276.22
  Q 268.86 276.41 268.87 276.68
  L 268.90 281.12
  Q 268.91 281.65 269.34 281.97
  Q 270.95 283.12 270.13 284.88
  Q 269.33 286.59 270.75 287.19
  Q 271.16 287.36 271.14 287.80
  L 270.98 291.49
  Q 270.97 291.73 271.13 291.91
  Q 271.22 292.01 271.35 292.04
  Q 271.88 292.20 271.88 292.74
  L 271.88 299.25
  Q 271.88 299.87 272.50 299.87
  L 272.85 299.87
  A 0.10 0.10 0.0 0 1 272.95 299.98
  L 272.84 307.11
  Q 272.83 307.64 272.33 307.81
  Q 267.86 309.28 263.02 309.26
  A 2.14 2.14 0.0 0 0 260.87 311.30
  Q 260.81 312.56 259.82 313.32
  A 1.86 1.85 80.5 0 0 259.18 314.22
  Q 257.72 318.62 256.22 323.12
  A 1.62 1.61 36.5 0 0 256.44 324.57
  Q 257.23 325.67 258.46 325.13
  Q 263.65 322.85 269.10 321.32
  Q 269.90 321.10 269.98 321.93
  Q 270.05 322.62 269.44 322.92
  Q 269.07 323.10 268.91 323.48
  Q 268.80 323.75 268.90 324.02
  A 0.71 0.71 0.0 0 1 268.53 324.89
  Q 267.62 325.31 267.89 326.31
  A 0.45 0.44 74.5 0 1 267.59 326.85
  Q 266.77 327.11 266.88 327.95
  Q 266.95 328.45 266.59 328.80
  L 265.13 330.22
  Q 264.88 330.46 264.88 330.81
  L 264.88 331.27
  Q 264.88 331.53 264.69 331.71
  L 262.13 334.23
  Q 261.88 334.47 261.88 334.82
  L 261.88 335.25
  Q 261.88 335.51 261.69 335.69
  L 253.75 343.62
  Q 253.51 343.86 253.18 343.90
  Q 253.01 343.92 252.85 343.89
  Q 252.53 343.81 252.30 344.05
  L 249.80 346.59
  Q 249.45 346.95 248.94 346.88
  Q 248.10 346.77 247.86 347.59
  A 0.47 0.47 0.0 0 1 247.26 347.90
  Q 246.35 347.61 245.95 348.44
  A 0.93 0.92 -68.3 0 1 244.85 348.92
  Q 243.62 348.53 242.93 349.44
  Q 242.60 349.88 242.05 349.88
  L 238.75 349.88
  Q 238.15 349.88 237.94 350.44
  Q 237.72 351.00 237.13 350.91
  Q 236.55 350.81 236.10 351.20
  Q 234.12 352.90 235.06 355.60
  Q 235.24 356.12 235.79 356.12
  L 239.22 356.12
  Q 239.77 356.12 240.04 355.63
  Q 240.12 355.48 240.19 355.32
  Q 240.33 354.99 240.68 355.10
  Q 241.69 355.41 242.09 354.48
  Q 242.21 354.21 242.50 354.19
  Q 244.06 354.12 245.06 352.50
  Q 245.39 351.98 245.98 352.13
  Q 246.66 352.30 246.97 351.65
  Q 247.21 351.17 247.74 351.12
  Q 248.52 351.03 249.48 351.13
  Q 250.21 351.20 250.12 350.49
  Q 250.05 350.03 250.52 350.03
  Q 250.91 350.03 251.00 349.68
  Q 251.16 349.12 251.74 349.12
  L 254.00 349.12
  A 1.53 1.03 16.9 0 0 254.88 348.85
  Q 255.01 348.75 255.06 348.59
  Q 255.30 347.89 256.00 348.09
  Q 257.47 348.51 258.17 347.41
  A 0.77 0.76 24.5 0 1 259.04 347.09
  Q 260.48 347.51 261.16 346.42
  A 0.80 0.78 -65.6 0 1 262.04 346.08
  Q 263.47 346.51 264.16 345.42
  Q 264.47 344.94 265.02 345.09
  Q 266.41 345.48 267.18 344.46
  Q 267.61 343.88 268.29 344.10
  Q 269.48 344.47 270.10 343.49
  Q 270.44 342.97 271.04 343.10
  Q 271.85 343.27 272.10 342.50
  A 0.65 0.65 0.0 0 1 272.91 342.07
  Q 274.46 342.54 275.22 341.37
  A 0.65 0.65 0.0 0 1 275.92 341.09
  Q 276.86 341.31 277.14 340.43
  A 0.56 0.55 -72.5 0 1 277.83 340.06
  Q 279.47 340.56 280.22 339.36
  Q 280.48 338.96 280.94 339.08
  Q 281.86 339.33 282.15 338.43
  Q 282.29 337.98 282.74 338.11
  Q 283.63 338.37 284.06 337.57
  Q 284.42 336.89 285.16 337.10
  Q 286.49 337.49 287.15 336.42
  A 0.78 0.76 22.6 0 1 287.97 336.09
  Q 288.88 336.30 289.14 335.41
  A 0.48 0.47 17.7 0 1 289.75 335.10
  Q 290.64 335.39 291.05 334.57
  A 0.93 0.92 -68.3 0 1 292.16 334.09
  Q 293.48 334.50 294.17 333.41
  A 0.70 0.70 0.0 0 1 294.92 333.09
  Q 295.88 333.30 296.17 332.37
  Q 296.29 332.00 296.67 332.11
  Q 297.71 332.41 298.12 331.44
  Q 298.32 330.98 298.80 331.12
  Q 299.64 331.36 300.04 330.59
  Q 300.40 329.89 301.16 330.10
  Q 302.47 330.48 303.13 329.46
  Q 303.45 328.98 304.00 329.10
  Q 304.88 329.28 305.14 328.42
  A 0.48 0.47 -72.5 0 1 305.75 328.10
  Q 306.63 328.39 307.04 327.59
  Q 307.41 326.88 308.17 327.10
  Q 309.49 327.49 310.15 326.43
  A 0.75 0.74 22.0 0 1 310.97 326.09
  Q 311.88 326.30 312.14 325.41
  A 0.47 0.47 0.0 0 1 312.74 325.10
  Q 313.64 325.39 314.05 324.56
  A 0.92 0.91 -68.0 0 1 315.15 324.09
  Q 316.48 324.50 317.16 323.42
  Q 317.44 322.98 317.94 323.09
  Q 318.87 323.29 319.15 322.42
  Q 319.29 321.99 319.73 322.11
  Q 320.67 322.38 321.11 321.49
  A 0.79 0.78 21.2 0 1 322.05 321.08
  Q 323.49 321.53 324.22 320.35
  Q 324.44 319.99 324.83 320.11
  Q 325.68 320.37 326.03 319.57
  Q 326.21 319.15 326.68 319.13
  Q 327.76 319.09 328.96 319.14
  Q 329.50 319.16 329.89 318.89
  Q 330.12 318.73 330.11 318.45
  A 0.31 0.31 0.0 0 1 330.42 318.13
  Q 331.75 318.11 333.04 318.13
  Q 333.49 318.13 333.89 317.87
  Q 334.00 317.80 334.04 317.66
  Q 334.19 317.12 334.75 317.12
  L 349.21 317.12
  Q 349.64 317.12 349.88 317.48
  Q 350.54 318.46 351.81 318.11
  Q 352.60 317.88 352.98 318.61
  Q 353.35 319.31 354.15 319.15
  Q 354.79 319.02 355.03 319.63
  Q 355.28 320.29 355.97 320.15
  Q 356.45 320.05 356.79 320.41
  L 358.22 321.87
  Q 358.46 322.12 358.81 322.12
  L 359.28 322.12
  Q 359.54 322.12 359.73 322.32
  Q 361.31 323.99 363.00 325.58
  Q 363.95 326.48 364.50 327.54
  Q 365.04 328.59 366.26 328.75
  Q 366.76 328.82 366.99 329.28
  Q 367.93 331.21 368.59 332.96
  C 369.55 335.49 368.18 336.64 367.37 338.74
  Q 367.17 339.26 366.77 339.65
  Q 366.27 340.14 366.35 340.87
  C 366.47 341.97 367.12 342.45 367.04 343.72
  Q 366.66 349.91 367.04 355.21
  Q 367.14 356.57 366.58 357.82
  Q 365.94 359.26 365.89 360.04
  Q 365.81 361.03 365.93 362.15
  Q 365.98 362.66 365.53 362.91
  Q 365.03 363.18 364.93 363.76
  C 364.65 365.26 365.45 366.28 364.16 367.36
  Q 363.69 367.75 364.02 368.27
  Q 364.14 368.47 364.13 368.70
  Q 364.11 369.41 363.42 369.24
  Q 361.13 368.69 358.97 367.64
  Q 357.20 366.78 355.54 368.45
  Q 352.12 371.89 351.35 376.78
  A 1.77 1.76 11.9 0 0 352.64 378.75
  L 357.31 379.98
  Q 357.75 380.10 357.96 380.50
  Q 358.40 381.35 357.49 381.98
  Q 357.03 382.31 356.96 382.87
  Q 356.79 384.19 355.45 384.95
  A 1.07 1.06 -13.5 0 0 354.91 385.82
  Q 354.84 387.11 353.59 387.90
  Q 353.00 388.27 352.92 388.97
  Q 352.79 390.15 351.64 390.78
  Q 351.25 391.00 351.05 391.38
  Q 350.85 391.75 350.86 392.16
  Q 350.89 392.81 350.35 393.18
  Q 349.20 393.98 348.85 395.28
  Q 348.73 395.74 348.31 396.16
  Q 347.87 396.60 347.45 397.02
  Q 347.08 397.40 346.96 397.91
  Q 346.66 399.23 345.39 400.09
  A 1.13 1.11 74.8 0 0 344.90 400.96
  Q 344.82 402.12 343.68 402.77
  Q 342.90 403.21 342.90 404.09
  Q 342.90 404.61 342.53 404.98
  L 341.39 406.11
  Q 341.02 406.49 340.92 407.01
  Q 340.68 408.29 339.37 409.01
  Q 338.94 409.25 338.92 409.75
  Q 338.86 411.09 337.59 411.91
  Q 337.03 412.27 336.93 412.93
  Q 336.72 414.29 335.36 415.03
  Q 334.94 415.25 334.92 415.73
  Q 334.86 417.09 333.60 417.90
  Q 333.02 418.27 332.92 418.95
  Q 332.73 420.27 331.38 420.98
  Q 330.73 421.32 330.85 422.07
  Q 330.97 422.82 330.33 423.23
  Q 329.10 424.01 328.87 425.21
  Q 328.78 425.73 328.40 426.11
  L 327.45 427.06
  Q 327.06 427.45 326.94 428.00
  Q 326.70 429.15 325.61 429.88
  Q 325.03 430.27 324.92 430.96
  Q 324.70 432.31 323.35 433.02
  Q 322.88 433.27 322.88 433.80
  L 322.88 434.24
  Q 322.88 434.83 322.39 435.15
  Q 321.25 435.90 320.94 437.06
  Q 320.82 437.49 320.52 437.82
  L 318.10 440.46
  A 0.93 0.92 -28.5 0 0 317.88 441.20
  Q 317.89 441.32 317.91 441.45
  Q 317.93 441.56 317.85 441.65
  L 303.96 455.49
  Q 303.63 455.82 303.17 455.91
  Q 302.05 456.12 301.36 457.16
  Q 300.97 457.75 300.28 457.87
  Q 299.03 458.10 298.31 459.23
  Q 297.95 459.78 297.30 459.84
  Q 296.12 459.96 295.35 461.17
  Q 294.99 461.75 294.31 461.86
  Q 293.02 462.09 292.21 463.34
  Q 291.86 463.87 291.22 463.87
  Q 290.46 463.87 290.01 464.48
  Q 289.77 464.80 289.38 464.86
  Q 288.03 465.06 287.20 466.34
  Q 286.85 466.87 286.21 466.87
  Q 285.46 466.87 285.02 467.47
  Q 284.80 467.78 284.42 467.84
  Q 283.05 468.05 282.05 469.43
  Q 281.73 469.87 281.20 469.87
  Q 280.46 469.88 280.02 470.47
  Q 279.80 470.78 279.42 470.84
  Q 278.05 471.05 277.05 472.43
  Q 276.73 472.87 276.20 472.87
  Q 275.46 472.88 275.02 473.47
  Q 274.80 473.78 274.42 473.84
  Q 273.05 474.05 272.05 475.43
  Q 271.73 475.87 271.19 475.87
  Q 270.46 475.88 270.02 476.47
  Q 269.80 476.78 269.42 476.84
  Q 268.05 477.05 267.05 478.43
  Q 266.73 478.87 266.18 478.88
  Q 265.43 478.89 265.01 479.50
  Q 264.80 479.81 264.43 479.85
  Q 263.17 479.97 262.33 481.20
  Q 261.97 481.72 261.35 481.86
  Q 259.88 482.19 258.91 483.52
  Q 258.57 483.97 258.01 483.93
  Q 257.49 483.89 257.14 484.33
  Q 256.80 484.76 256.26 484.88
  Q 254.88 485.21 253.92 486.51
  Q 253.58 486.98 252.99 486.93
  Q 252.48 486.89 252.14 487.33
  Q 251.81 487.76 251.27 487.88
  Q 249.88 488.20 248.92 489.51
  Q 248.58 489.98 247.99 489.93
  Q 247.48 489.89 247.14 490.33
  Q 246.81 490.76 246.27 490.88
  Q 244.88 491.20 243.92 492.51
  Q 243.58 492.98 242.99 492.93
  Q 242.48 492.89 242.14 493.33
  Q 241.81 493.76 241.27 493.88
  Q 239.88 494.20 238.92 495.51
  Q 238.58 495.98 237.99 495.93
  Q 237.48 495.89 237.14 496.33
  Q 236.81 496.76 236.27 496.88
  Q 234.88 497.20 233.92 498.51
  Q 233.58 498.98 232.99 498.93
  Q 232.48 498.89 232.14 499.33
  Q 231.81 499.76 231.27 499.88
  Q 229.88 500.20 228.92 501.51
  Q 228.58 501.98 227.99 501.93
  Q 227.48 501.89 227.14 502.33
  Q 226.81 502.76 226.27 502.88
  Q 224.88 503.20 223.92 504.51
  Q 223.58 504.97 222.99 504.93
  Q 222.48 504.89 222.14 505.33
  Q 221.81 505.76 221.27 505.88
  Q 219.88 506.20 218.90 507.52
  Q 218.58 507.96 218.04 507.92
  Q 217.44 507.87 217.08 508.41
  Q 216.84 508.78 216.40 508.85
  Q 215.03 509.06 214.05 510.43
  Q 213.73 510.87 213.20 510.87
  Q 212.45 510.87 212.01 511.48
  Q 211.78 511.80 211.39 511.86
  Q 210.04 512.06 209.20 513.34
  Q 208.85 513.87 208.21 513.87
  Q 207.46 513.87 207.02 514.47
  Q 206.80 514.78 206.42 514.84
  Q 205.05 515.05 204.05 516.43
  Q 203.73 516.87 203.20 516.87
  Q 202.46 516.88 202.02 517.47
  Q 201.80 517.78 201.42 517.84
  Q 200.05 518.05 199.05 519.43
  Q 198.73 519.87 198.19 519.87
  Q 197.46 519.87 197.03 520.46
  Q 196.80 520.78 196.41 520.84
  Q 195.05 521.06 194.04 522.43
  Q 193.74 522.85 193.22 522.86
  Q 192.45 522.88 191.99 523.50
  Q 191.65 523.96 191.09 523.94
  Q 190.34 523.91 189.92 524.58
  Q 189.69 524.95 189.26 524.90
  Q 188.43 524.81 187.96 525.55
  Q 187.71 525.95 187.23 525.90
  Q 186.44 525.82 185.98 526.52
  Q 185.70 526.95 185.18 526.90
  Q 184.45 526.84 184.01 527.48
  Q 183.69 527.94 183.14 527.89
  Q 182.42 527.83 182.06 528.47
  A 0.79 0.77 -72.5 0 1 181.32 528.87
  Q 180.40 528.81 179.93 529.60
  A 0.69 0.68 22.5 0 1 179.17 529.91
  Q 177.82 529.55 176.97 530.54
  Q 176.68 530.88 176.24 530.88
  L 173.75 530.88
  Q 173.23 530.88 173.06 531.38
  Q 173.01 531.54 172.89 531.66
  A 0.90 0.86 22.8 0 1 172.29 531.89
  C 170.51 531.89 167.38 531.48 165.92 532.58
  Q 165.52 532.88 165.01 532.88
  L 160.00 532.88
  Q 159.51 532.88 159.12 532.60
  C 157.54 531.43 153.76 531.88 151.86 531.90
  Q 151.40 531.91 151.08 531.59
  L 150.72 531.23
  Q 150.38 530.88 149.89 530.88
  L 147.00 530.88
  Q 146.48 530.88 146.09 530.54
  Q 144.91 529.51 143.11 529.92
  Q 142.47 530.07 142.06 529.55
  Q 141.33 528.63 140.15 528.89
  Q 139.31 529.07 138.85 528.35
  Q 138.54 527.88 137.98 527.88
  L 135.95 527.88
  Q 135.36 527.88 134.96 527.46
  Q 134.11 526.58 132.82 526.90
  Q 132.34 527.03 132.08 526.60
  Q 131.67 525.91 130.88 525.92
  Q 130.35 525.93 130.00 525.52
  Q 129.17 524.55 127.86 524.91
  Q 127.43 525.04 127.18 524.66
  Q 126.66 523.91 125.75 523.89
  Q 125.22 523.88 125.00 523.40
  Q 124.69 522.71 123.91 522.85
  Q 123.37 522.95 123.11 522.46
  Q 121.18 518.80 124.06 516.14
  Q 124.43 515.80 124.92 515.70
  Q 127.58 515.12 127.21 512.32
  Q 127.05 511.14 126.27 509.80
  Q 125.69 508.81 124.79 508.13
  Q 123.80 507.38 123.11 506.23
  Z
  M 208.85 327.59
  Q 220.30 328.48 232.01 329.07
  Q 236.60 329.30 238.33 329.20
  Q 238.84 329.17 239.20 328.81
  L 256.68 311.39
  Q 257.07 311.00 257.13 310.45
  Q 257.51 306.87 257.29 305.74
  Q 250.89 273.02 244.72 241.51
  A 5.06 5.06 0.0 0 0 240.02 237.43
  L 200.05 235.39
  Q 199.58 235.36 199.46 234.90
  L 194.09 213.99
  Q 193.97 213.52 194.44 213.62
  L 264.91 228.09
  A 0.65 0.65 0.0 0 1 265.24 229.19
  L 265.03 229.39
  A 1.02 0.96 -22.7 0 0 264.75 230.02
  L 264.28 236.72
  A 4.64 4.63 10.2 0 0 267.61 241.49
  Q 287.79 247.37 307.69 253.28
  C 309.80 253.90 311.88 253.81 314.02 253.74
  Q 314.51 253.72 314.86 253.36
  Q 317.18 251.00 318.46 249.22
  Q 333.45 228.49 350.20 205.23
  Q 350.99 204.14 352.14 202.89
  Q 352.47 202.53 352.51 202.03
  Q 352.74 199.43 352.40 198.00
  Q 344.69 165.63 337.43 134.71
  Q 337.31 134.19 336.82 133.96
  Q 335.92 133.54 335.41 132.70
  Q 335.07 132.12 334.40 132.13
  C 332.47 132.16 330.59 132.13 328.68 131.81
  Q 234.38 115.95 139.13 100.01
  C 136.60 99.58 134.03 99.70 131.49 99.77
  Q 130.98 99.79 130.61 100.12
  Q 128.90 101.63 127.60 103.11
  Q 117.19 115.03 106.16 127.85
  C 103.23 131.26 103.89 136.66 104.09 140.80
  Q 112.64 316.60 121.60 500.40
  Q 121.67 501.93 122.64 503.16
  Q 123.95 504.84 126.23 505.38
  Q 145.32 509.96 163.08 514.55
  C 165.82 515.26 169.18 515.35 171.73 513.82
  Q 235.04 475.70 298.24 437.75
  C 300.12 436.62 301.83 434.96 303.03 433.14
  Q 327.14 396.90 351.88 359.65
  Q 352.80 358.27 352.69 356.69
  Q 352.56 354.77 352.43 352.88
  Q 351.68 342.69 352.06 330.75
  Q 352.10 329.51 351.92 328.40
  Q 351.85 327.97 351.53 327.65
  L 349.55 325.70
  Q 349.15 325.31 348.58 325.30
  C 346.81 325.29 345.27 325.02 343.56 325.76
  Q 280.64 352.99 217.78 380.24
  Q 217.32 380.44 217.25 379.95
  Q 213.40 354.32 209.03 328.68
  Q 208.99 328.49 208.90 328.34
  Q 208.79 328.15 208.65 327.99
  Q 208.26 327.54 208.85 327.59
  Z"
/>
<path fill="#ffffff" d="
  M 208.65 327.99
  Q 208.79 328.15 208.90 328.34
  Q 208.99 328.49 209.03 328.68
  Q 213.40 354.32 217.25 379.95
  Q 217.32 380.44 217.78 380.24
  Q 280.64 352.99 343.56 325.76
  C 345.27 325.02 346.81 325.29 348.58 325.30
  Q 349.15 325.31 349.55 325.70
  L 351.53 327.65
  Q 351.85 327.97 351.92 328.40
  Q 352.10 329.51 352.06 330.75
  Q 351.68 342.69 352.43 352.88
  Q 352.56 354.77 352.69 356.69
  Q 352.80 358.27 351.88 359.65
  Q 327.14 396.90 303.03 433.14
  C 301.83 434.96 300.12 436.62 298.24 437.75
  Q 235.04 475.70 171.73 513.82
  C 169.18 515.35 165.82 515.26 163.08 514.55
  Q 145.32 509.96 126.23 505.38
  Q 123.95 504.84 122.64 503.16
  Q 121.67 501.93 121.60 500.40
  Q 112.64 316.60 104.09 140.80
  C 103.89 136.66 103.23 131.26 106.16 127.85
  Q 117.19 115.03 127.60 103.11
  Q 128.90 101.63 130.61 100.12
  Q 130.98 99.79 131.49 99.77
  C 134.03 99.70 136.60 99.58 139.13 100.01
  Q 234.38 115.95 328.68 131.81
  C 330.59 132.13 332.47 132.16 334.40 132.13
  Q 335.07 132.12 335.41 132.70
  Q 335.92 133.54 336.82 133.96
  Q 337.31 134.19 337.43 134.71
  Q 344.69 165.63 352.40 198.00
  Q 352.74 199.43 352.51 202.03
  Q 352.47 202.53 352.14 202.89
  Q 350.99 204.14 350.20 205.23
  Q 333.45 228.49 318.46 249.22
  Q 317.18 251.00 314.86 253.36
  Q 314.51 253.72 314.02 253.74
  C 311.88 253.81 309.80 253.90 307.69 253.28
  Q 287.79 247.37 267.61 241.49
  A 4.64 4.63 10.2 0 1 264.28 236.72
  L 264.75 230.02
  A 1.02 0.96 -22.7 0 1 265.03 229.39
  L 265.24 229.19
  A 0.65 0.65 0.0 0 0 264.91 228.09
  L 194.44 213.62
  Q 193.97 213.52 194.09 213.99
  L 199.46 234.90
  Q 199.58 235.36 200.05 235.39
  L 240.02 237.43
  A 5.06 5.06 0.0 0 1 244.72 241.51
  Q 250.89 273.02 257.29 305.74
  Q 257.51 306.87 257.13 310.45
  Q 257.07 311.00 256.68 311.39
  L 239.20 328.81
  Q 238.84 329.17 238.33 329.20
  Q 236.60 329.30 232.01 329.07
  Q 220.30 328.48 208.85 327.59
  Q 208.26 327.54 208.65 327.99
  Z
  M 200.51 321.75
  C 201.97 320.56 202.40 319.02 204.65 319.16
  Q 219.98 320.17 234.23 320.97
  A 1.62 1.58 -65.5 0 0 235.45 320.50
  L 248.49 307.50
  A 0.81 0.81 0.0 0 0 248.71 306.76
  L 236.83 245.97
  Q 236.73 245.44 236.19 245.42
  L 196.42 243.36
  A 5.21 5.20 84.2 0 1 191.64 239.46
  Q 188.35 226.83 185.02 213.47
  C 184.51 211.40 184.56 209.50 184.56 207.40
  A 0.90 0.86 67.2 0 1 184.79 206.80
  L 186.86 204.57
  A 0.98 0.97 20.2 0 1 187.56 204.25
  C 189.41 204.21 191.14 204.14 192.97 204.52
  Q 232.61 212.69 269.82 220.31
  C 271.45 220.65 272.57 221.78 273.56 223.05
  Q 273.87 223.44 273.89 223.95
  Q 274.04 228.93 273.00 233.14
  Q 272.82 233.85 273.52 234.06
  L 310.30 244.85
  A 0.58 0.58 0.0 0 0 310.94 244.63
  L 343.34 199.55
  Q 343.69 199.05 343.55 198.45
  L 329.98 141.03
  Q 329.89 140.62 329.46 140.55
  L 135.48 108.01
  Q 134.89 107.91 134.50 108.36
  Q 124.06 120.29 113.66 132.44
  C 111.75 134.68 112.10 138.37 112.27 141.82
  Q 120.84 317.16 129.44 492.50
  Q 129.54 494.56 129.56 496.73
  Q 129.56 497.18 129.99 497.29
  L 166.27 506.28
  Q 166.73 506.39 167.13 506.15
  L 293.78 429.98
  A 6.04 5.97 -88.3 0 0 295.68 428.17
  L 343.96 355.51
  Q 344.34 354.94 344.30 354.25
  Q 343.73 345.34 344.10 335.89
  Q 344.12 335.23 343.52 335.49
  Q 281.32 362.38 218.85 389.46
  C 217.00 390.26 215.12 390.05 213.20 390.05
  A 1.46 1.40 -25.4 0 1 212.33 389.76
  Q 210.01 387.99 209.84 386.92
  Q 205.66 360.41 200.52 329.10
  C 200.17 326.98 200.16 324.83 200.08 322.70
  Q 200.06 322.11 200.51 321.75
  Z"
/>
<path fill="#d41b16" d="
  M 204.65 319.16
  C 202.40 319.02 201.97 320.56 200.51 321.75
  Q 200.06 322.11 200.08 322.70
  C 200.16 324.83 200.17 326.98 200.52 329.10
  Q 205.66 360.41 209.84 386.92
  Q 210.01 387.99 212.33 389.76
  A 1.46 1.40 -25.4 0 0 213.20 390.05
  C 215.12 390.05 217.00 390.26 218.85 389.46
  Q 281.32 362.38 343.52 335.49
  Q 344.12 335.23 344.10 335.89
  Q 343.73 345.34 344.30 354.25
  Q 344.34 354.94 343.96 355.51
  L 295.68 428.17
  A 6.04 5.97 -88.3 0 1 293.78 429.98
  L 167.13 506.15
  Q 166.73 506.39 166.27 506.28
  L 129.99 497.29
  Q 129.56 497.18 129.56 496.73
  Q 129.54 494.56 129.44 492.50
  Q 120.84 317.16 112.27 141.82
  C 112.10 138.37 111.75 134.68 113.66 132.44
  Q 124.06 120.29 134.50 108.36
  Q 134.89 107.91 135.48 108.01
  L 329.46 140.55
  Q 329.89 140.62 329.98 141.03
  L 343.55 198.45
  Q 343.69 199.05 343.34 199.55
  L 310.94 244.63
  A 0.58 0.58 0.0 0 1 310.30 244.85
  L 273.52 234.06
  Q 272.82 233.85 273.00 233.14
  Q 274.04 228.93 273.89 223.95
  Q 273.87 223.44 273.56 223.05
  C 272.57 221.78 271.45 220.65 269.82 220.31
  Q 232.61 212.69 192.97 204.52
  C 191.14 204.14 189.41 204.21 187.56 204.25
  A 0.98 0.97 20.2 0 0 186.86 204.57
  L 184.79 206.80
  A 0.90 0.86 67.2 0 0 184.56 207.40
  C 184.56 209.50 184.51 211.40 185.02 213.47
  Q 188.35 226.83 191.64 239.46
  A 5.21 5.20 84.2 0 0 196.42 243.36
  L 236.19 245.42
  Q 236.73 245.44 236.83 245.97
  L 248.71 306.76
  A 0.81 0.81 0.0 0 1 248.49 307.50
  L 235.45 320.50
  A 1.62 1.58 -65.5 0 1 234.23 320.97
  Q 219.98 320.17 204.65 319.16
  Z"
/>
<path fill="#000000" fill-opacity="0.051" d="
  M 135.79 558.73
  L 134.23 560.40
  Q 133.89 560.76 133.88 561.26
  C 133.81 563.32 133.79 565.18 134.22 567.23
  C 136.36 577.70 138.53 588.24 141.15 598.85
  Q 148.00 626.55 154.84 654.46
  C 155.73 658.08 157.03 659.60 160.64 660.09
  Q 193.08 664.52 225.47 668.97
  Q 226.35 669.09 226.54 669.97
  L 255.65 807.52
  Q 255.77 808.09 255.22 808.27
  L 214.42 821.91
  Q 213.93 822.08 214.01 821.56
  Q 216.90 801.76 219.84 781.97
  C 220.08 780.37 219.92 778.68 219.97 777.07
  A 1.29 1.26 -67.4 0 0 219.59 776.11
  L 217.76 774.27
  Q 217.32 773.83 216.70 773.83
  C 214.53 773.83 212.50 773.70 210.37 774.23
  Q 192.70 778.67 174.75 782.85
  C 172.94 783.27 171.30 785.09 170.33 786.53
  Q 163.89 796.14 157.64 805.63
  C 156.82 806.86 155.67 807.76 154.90 808.91
  Q 129.85 846.85 104.78 884.80
  Q 104.50 885.21 104.52 885.71
  Q 104.72 891.29 104.65 897.43
  Q 104.37 924.82 104.24 951.52
  C 104.21 957.63 103.84 963.77 104.04 969.90
  C 104.10 971.56 105.56 973.08 107.27 973.12
  Q 111.21 973.20 112.99 972.50
  Q 115.70 971.43 118.67 969.98
  Q 215.62 922.68 312.50 875.37
  Q 317.75 872.80 322.42 870.78
  A 4.74 4.73 82.7 0 0 325.23 867.13
  Q 332.72 817.39 341.23 760.66
  C 341.52 758.75 341.55 756.97 341.47 755.06
  Q 341.45 754.53 341.11 754.13
  Q 340.43 753.33 340.08 752.44
  Q 322.44 708.33 305.55 666.75
  Q 305.40 666.39 305.79 666.34
  L 344.58 661.68
  A 5.39 5.38 -0.5 0 0 349.29 656.90
  Q 352.64 625.01 355.06 597.32
  Q 355.30 594.60 355.24 591.04
  Q 355.24 590.51 354.86 590.13
  L 352.78 588.02
  Q 352.42 587.65 351.91 587.58
  Q 249.46 573.11 147.00 558.72
  Q 140.51 557.81 135.70 558.34
  L 135.57 557.83
  Q 135.48 557.47 135.83 557.33
  Q 135.97 557.27 136.13 557.24
  Q 136.64 557.11 136.11 557.12
  Q 135.97 557.12 135.97 557.12
  Q 136.00 556.97 136.04 556.83
  Q 136.17 556.38 136.62 556.26
  Q 136.70 556.24 136.76 556.30
  Q 136.87 556.41 136.87 556.53
  Q 136.86 556.67 136.96 556.58
  Q 138.26 555.47 140.01 555.42
  A 0.90 0.87 -73.0 0 0 140.72 555.03
  Q 140.96 554.68 141.37 554.65
  C 142.47 554.59 142.98 555.13 144.20 554.61
  Q 144.65 554.41 144.85 553.95
  Q 145.06 553.45 145.59 553.56
  Q 146.01 553.65 146.44 553.63
  Q 148.24 553.54 149.96 553.39
  A 2.36 2.33 54.1 0 1 151.04 553.57
  Q 151.99 553.99 152.79 553.58
  Q 153.22 553.37 153.66 553.56
  Q 155.01 554.14 156.25 553.75
  Q 156.68 553.61 157.13 553.70
  C 158.54 553.97 160.32 553.55 161.55 553.96
  Q 161.86 554.07 162.09 554.30
  Q 162.46 554.69 163.00 554.67
  Q 164.62 554.62 166.21 554.83
  Q 166.98 554.93 167.77 554.84
  Q 168.56 554.75 169.09 555.32
  Q 169.40 555.66 169.85 555.68
  L 175.29 555.95
  Q 175.79 555.98 176.10 556.37
  Q 176.25 556.56 176.51 556.60
  Q 179.22 556.93 182.24 556.89
  Q 182.77 556.88 183.08 557.30
  Q 183.43 557.76 184.01 557.67
  C 185.32 557.47 186.39 557.91 187.67 557.85
  Q 189.59 557.75 191.17 558.49
  A 1.45 1.41 -33.9 0 0 191.89 558.62
  C 192.82 558.54 193.44 558.95 194.36 558.86
  Q 195.83 558.73 197.16 559.16
  C 199.79 560.02 202.34 559.58 204.95 560.35
  Q 207.48 561.10 210.06 560.82
  Q 211.19 560.70 212.05 561.34
  Q 212.49 561.67 213.04 561.70
  L 218.29 561.95
  Q 218.78 561.97 219.09 562.37
  Q 219.24 562.57 219.50 562.60
  Q 222.57 562.93 225.26 562.89
  Q 225.77 562.88 226.05 563.32
  Q 226.21 563.56 226.50 563.60
  Q 229.20 563.92 232.25 563.89
  Q 232.77 563.88 233.06 564.32
  Q 233.21 564.56 233.50 564.60
  Q 236.22 564.93 239.24 564.88
  Q 239.77 564.87 240.06 565.31
  Q 240.22 565.56 240.51 565.59
  Q 243.20 565.92 246.24 565.90
  Q 246.76 565.89 247.08 566.30
  Q 247.43 566.76 248.01 566.67
  C 249.31 566.48 250.36 566.89 251.67 566.84
  Q 253.59 566.76 255.14 567.48
  Q 255.51 567.65 255.92 567.61
  C 256.84 567.53 257.48 567.98 258.39 567.88
  Q 260.30 567.69 262.08 568.44
  Q 262.51 568.62 262.97 568.61
  C 263.89 568.58 264.50 568.96 265.42 568.86
  Q 266.82 568.72 268.12 569.15
  C 269.91 569.73 271.65 569.83 273.52 569.92
  Q 274.69 569.97 275.94 570.35
  Q 278.48 571.10 281.07 570.82
  Q 282.19 570.70 283.03 571.33
  Q 283.48 571.67 284.04 571.70
  L 289.28 571.95
  Q 289.77 571.97 290.08 572.37
  Q 290.23 572.57 290.50 572.60
  Q 293.57 572.93 296.25 572.89
  Q 296.77 572.89 297.05 573.32
  Q 297.21 573.56 297.50 573.60
  Q 300.23 573.93 303.25 573.88
  Q 303.77 573.88 304.06 574.32
  Q 304.22 574.56 304.51 574.59
  Q 307.54 574.93 310.36 574.92
  Q 310.75 574.92 310.98 575.23
  Q 311.06 575.34 311.17 575.44
  Q 311.26 575.52 311.38 575.54
  C 313.94 575.95 316.50 575.59 318.92 576.33
  Q 320.93 576.95 322.88 576.85
  Q 324.09 576.78 325.29 577.19
  C 327.12 577.81 329.09 577.90 330.99 577.89
  Q 331.48 577.88 331.88 578.17
  Q 332.94 578.92 334.32 578.62
  Q 336.05 578.25 337.22 579.38
  Q 337.58 579.73 338.08 579.77
  L 340.46 579.96
  A 0.71 0.68 -21.1 0 1 340.86 580.13
  Q 341.90 581.03 343.26 580.83
  Q 344.54 580.63 345.29 581.60
  A 0.81 0.79 64.6 0 0 346.08 581.89
  Q 346.55 581.78 346.86 582.14
  Q 347.22 582.56 347.76 582.66
  L 349.34 582.96
  Q 349.89 583.07 350.23 583.51
  Q 350.86 584.31 351.77 584.64
  Q 352.71 584.98 353.48 585.72
  Q 357.30 589.40 360.89 593.30
  Q 361.12 593.56 361.12 593.90
  L 361.12 594.16
  Q 361.12 594.54 361.45 594.73
  Q 362.17 595.14 362.11 595.91
  Q 362.06 596.41 362.45 596.72
  Q 363.42 597.53 363.11 598.78
  Q 362.97 599.33 363.42 599.68
  Q 363.78 599.95 364.00 600.33
  A 1.25 1.25 0.0 0 1 364.16 601.19
  Q 363.77 603.39 364.89 605.34
  Q 365.14 605.77 365.15 606.26
  Q 365.24 612.78 365.18 618.37
  Q 365.15 620.81 364.64 623.15
  Q 363.97 626.20 364.17 629.02
  Q 364.28 630.64 363.82 632.08
  Q 363.35 633.58 363.28 635.09
  Q 363.17 637.50 363.08 639.95
  Q 363.01 641.94 362.47 643.90
  Q 361.91 645.92 362.16 648.02
  Q 362.22 648.55 361.82 648.91
  Q 361.21 649.45 361.34 650.31
  Q 361.40 650.72 361.29 651.11
  Q 360.98 652.22 361.21 653.33
  Q 361.26 653.57 361.07 653.73
  Q 360.04 654.58 360.15 656.06
  A 1.09 1.05 -27.0 0 1 359.88 656.84
  Q 358.96 657.89 359.19 659.40
  Q 359.25 659.76 358.92 659.91
  Q 358.46 660.13 358.35 660.62
  Q 357.94 662.34 356.91 663.84
  Q 356.64 664.24 356.60 664.73
  Q 356.49 666.52 355.92 668.17
  Q 355.13 670.44 355.01 672.93
  Q 354.99 673.51 354.58 673.92
  L 354.35 674.15
  Q 354.23 674.27 354.19 674.43
  Q 353.77 676.23 353.63 678.19
  Q 353.57 679.01 352.98 679.63
  Q 352.48 680.15 351.80 680.09
  Q 351.31 680.05 351.07 680.47
  Q 350.59 681.29 349.53 681.20
  Q 348.75 681.14 349.37 681.61
  Q 350.42 682.41 350.08 683.69
  A 1.17 1.12 -57.5 0 1 348.09 684.17
  Q 347.95 683.99 347.75 683.88
  Q 347.11 683.55 347.49 682.93
  Q 347.58 682.79 347.59 682.62
  Q 347.61 681.88 347.14 682.45
  Q 346.33 683.43 344.51 683.22
  Q 344.08 683.16 343.97 682.75
  Q 343.52 681.10 344.59 680.06
  Q 344.90 679.76 344.92 679.33
  Q 344.99 677.73 344.47 676.40
  Q 344.31 675.99 344.18 676.41
  Q 344.06 676.75 343.81 677.02
  Q 343.50 677.35 343.10 677.16
  Q 342.97 677.09 342.81 677.10
  Q 342.56 677.10 342.42 677.31
  Q 341.64 678.42 340.30 678.11
  Q 339.72 677.97 339.33 678.42
  Q 338.43 679.45 336.99 679.09
  Q 336.59 678.99 336.38 679.35
  Q 335.92 680.14 335.04 680.08
  Q 334.56 680.05 334.30 680.45
  Q 333.88 681.11 333.11 681.07
  Q 332.61 681.05 332.25 681.40
  L 328.37 685.28
  Q 327.96 685.69 328.11 686.25
  Q 328.44 687.48 327.49 688.09
  Q 327.12 688.33 327.12 688.77
  L 327.12 691.76
  Q 327.12 692.24 327.37 692.65
  Q 328.03 693.69 328.10 694.97
  Q 328.13 695.56 328.58 695.93
  Q 329.33 696.55 329.17 697.59
  Q 329.08 698.15 329.39 698.64
  Q 330.89 701.02 331.74 703.66
  Q 332.38 705.64 333.39 707.48
  Q 334.31 709.16 334.94 711.06
  Q 335.09 711.50 335.05 711.97
  Q 334.99 712.68 335.61 712.99
  Q 336.06 713.21 336.09 713.71
  C 336.15 714.79 336.41 715.73 336.35 716.72
  Q 336.25 718.29 338.31 719.69
  Q 338.38 719.74 338.39 719.65
  Q 338.59 717.75 338.65 715.75
  Q 338.67 715.21 339.14 714.94
  Q 339.25 714.88 339.36 714.82
  Q 339.54 714.73 339.55 714.53
  L 339.83 709.80
  Q 339.86 709.27 340.35 709.07
  Q 340.52 709.00 340.66 708.87
  Q 340.87 708.66 340.87 708.37
  L 340.89 704.82
  Q 340.89 704.33 341.28 704.01
  C 342.64 702.90 342.01 700.57 342.19 699.00
  Q 342.24 698.53 342.62 698.24
  Q 343.39 697.65 343.61 696.67
  A 1.51 1.45 75.5 0 1 344.02 695.94
  Q 344.45 695.51 345.03 695.64
  Q 345.50 695.74 345.64 695.29
  Q 345.73 695.00 345.46 694.96
  Q 345.25 694.93 345.31 694.72
  Q 345.64 693.41 347.00 693.56
  Q 348.59 693.73 348.62 695.20
  Q 348.63 695.71 348.99 696.06
  L 350.07 697.11
  Q 350.54 697.57 350.58 698.23
  Q 350.81 701.45 350.14 703.76
  Q 349.63 705.52 349.79 707.57
  Q 349.84 708.19 349.60 708.76
  Q 348.86 710.46 348.85 712.35
  Q 348.85 714.01 348.42 715.56
  Q 347.86 717.62 348.18 719.99
  Q 348.25 720.51 347.85 720.84
  Q 347.18 721.40 347.41 722.24
  Q 347.96 724.25 347.90 726.32
  Q 347.88 726.73 347.70 727.09
  Q 346.85 728.76 347.74 729.99
  Q 347.93 730.24 348.03 730.55
  L 348.74 732.74
  Q 348.79 732.90 348.97 732.87
  Q 349.18 732.84 349.30 732.69
  Q 349.39 732.57 349.41 732.72
  Q 349.53 733.72 349.05 734.43
  A 1.09 1.08 -61.5 0 0 349.52 736.03
  Q 350.39 736.40 349.99 737.24
  Q 349.85 737.55 350.04 737.82
  Q 350.19 738.02 350.43 738.04
  Q 350.82 738.07 350.86 738.47
  L 351.08 740.75
  A 0.32 0.32 0.0 0 0 351.29 741.02
  L 351.54 741.11
  A 0.67 0.66 19.0 0 1 351.95 741.94
  Q 351.49 743.36 352.51 744.15
  Q 352.93 744.47 352.97 744.99
  L 353.21 747.72
  Q 353.25 748.16 353.69 748.12
  Q 353.87 748.10 354.00 748.23
  Q 354.12 748.36 354.16 748.53
  Q 354.46 749.90 353.95 751.03
  Q 353.75 751.47 354.13 751.78
  Q 355.70 753.08 354.97 755.68
  Q 354.85 756.11 355.12 756.47
  L 355.80 757.37
  Q 356.12 757.79 356.14 758.32
  Q 356.41 763.84 356.12 767.99
  Q 356.04 769.13 356.71 769.80
  Q 356.85 769.94 356.72 770.09
  Q 356.08 770.85 355.95 772.02
  C 355.83 773.08 356.43 773.90 355.98 774.89
  A 0.88 0.85 45.8 0 0 355.98 775.62
  Q 356.41 776.56 356.35 777.65
  Q 356.31 778.22 355.74 778.19
  Q 355.44 778.18 355.27 778.47
  Q 355.13 778.72 355.18 779.00
  Q 355.57 780.96 354.93 782.91
  Q 354.65 783.76 355.02 784.53
  Q 355.53 785.57 354.56 786.11
  Q 354.25 786.29 354.13 786.62
  Q 353.63 787.99 354.04 789.28
  Q 354.19 789.77 354.04 790.25
  Q 353.75 791.20 353.91 792.12
  Q 354.01 792.74 353.42 792.92
  Q 353.21 792.98 353.09 793.17
  A 1.14 0.72 -37.8 0 0 352.88 793.75
  L 352.88 798.25
  Q 352.88 798.74 352.42 798.92
  Q 352.18 799.01 352.05 799.25
  Q 351.88 799.57 351.88 799.93
  L 351.88 805.25
  Q 351.88 805.74 351.43 805.92
  Q 351.17 806.02 351.04 806.27
  Q 350.88 806.59 350.88 806.96
  L 350.88 812.25
  Q 350.88 812.75 350.42 812.92
  Q 350.22 812.99 350.09 813.17
  A 1.32 1.27 -27.9 0 0 349.86 813.87
  Q 349.85 815.99 349.93 818.19
  Q 349.94 818.73 349.44 818.92
  Q 349.07 819.05 348.90 819.47
  A 0.81 0.79 -38.9 0 0 348.85 819.88
  Q 349.17 821.91 348.87 824.17
  Q 348.80 824.68 348.99 825.16
  Q 349.27 825.86 348.61 826.24
  Q 348.17 826.49 348.14 826.99
  Q 347.96 829.50 347.99 832.18
  Q 348.00 832.52 347.92 832.81
  Q 347.78 833.34 348.23 833.60
  Q 348.59 833.80 348.20 833.92
  Q 348.07 833.96 347.95 833.91
  Q 347.77 833.84 347.86 833.67
  Q 347.93 833.52 347.83 833.37
  Q 347.66 833.11 347.49 833.37
  Q 347.40 833.49 347.31 833.61
  Q 347.18 833.76 347.17 833.96
  Q 347.09 835.75 347.14 837.54
  Q 347.16 838.13 346.84 838.63
  Q 346.69 838.87 346.42 838.97
  Q 345.88 839.17 345.88 839.75
  L 345.88 845.25
  Q 345.88 845.74 345.43 845.92
  Q 345.22 846.00 345.10 846.18
  Q 344.88 846.49 344.88 846.75
  L 344.88 851.21
  A 0.77 0.77 0.0 0 1 344.54 851.85
  L 344.17 852.09
  Q 343.97 852.21 343.96 852.45
  L 343.62 860.99
  Q 343.60 861.36 343.23 861.46
  Q 342.87 861.55 342.95 861.94
  Q 343.04 862.34 342.74 862.64
  Q 341.45 863.90 341.92 865.93
  Q 342.05 866.51 341.56 866.84
  Q 340.50 867.56 340.90 869.10
  Q 341.06 869.71 340.54 870.07
  Q 339.51 870.77 339.91 872.11
  A 0.65 0.65 0.0 0 1 339.53 872.90
  Q 338.57 873.31 338.91 874.33
  A 0.38 0.38 0.0 0 1 338.66 874.81
  Q 337.71 875.11 337.88 876.15
  Q 337.99 876.83 337.33 876.99
  Q 337.25 877.01 337.19 877.07
  Q 336.99 877.27 336.96 877.56
  Q 336.81 878.83 335.67 879.58
  C 334.07 880.64 333.77 882.41 332.55 883.72
  Q 329.74 886.74 326.76 889.62
  Q 326.49 889.88 326.11 889.89
  Q 325.98 889.89 325.84 889.88
  Q 325.75 889.87 325.68 889.93
  Q 324.16 891.07 322.92 892.51
  Q 322.52 892.98 321.91 892.89
  Q 321.12 892.78 320.87 893.55
  Q 320.71 894.04 320.22 893.89
  Q 319.31 893.62 318.94 894.48
  Q 318.80 894.82 318.43 894.84
  Q 316.93 894.91 315.98 896.45
  Q 315.63 897.03 314.97 896.90
  Q 314.09 896.73 313.85 897.61
  Q 313.75 898.02 313.34 897.90
  Q 312.31 897.59 311.89 898.54
  Q 311.68 899.01 311.18 898.89
  Q 310.74 898.78 310.34 898.98
  Q 309.96 899.17 309.84 899.58
  Q 309.71 900.03 309.26 899.91
  Q 307.82 899.52 306.92 900.59
  Q 306.65 900.92 306.23 900.89
  Q 305.44 900.83 304.97 901.53
  Q 304.69 901.95 304.18 901.90
  Q 303.44 901.82 303.04 902.46
  Q 302.70 903.01 302.06 902.90
  Q 301.12 902.72 300.82 903.64
  Q 300.70 904.01 300.32 903.90
  Q 299.32 903.59 298.91 904.52
  A 0.69 0.68 -71.7 0 1 298.15 904.91
  Q 297.12 904.68 296.81 905.66
  Q 296.70 906.00 296.35 905.90
  Q 295.32 905.58 294.90 906.52
  A 0.67 0.67 0.0 0 1 294.15 906.91
  Q 293.12 906.68 292.81 907.66
  Q 292.70 908.01 292.35 907.90
  Q 291.32 907.59 290.90 908.52
  A 0.68 0.68 0.0 0 1 290.14 908.91
  Q 289.12 908.69 288.81 909.66
  Q 288.70 910.01 288.35 909.90
  Q 287.32 909.59 286.90 910.52
  A 0.68 0.68 0.0 0 1 286.14 910.91
  Q 285.12 910.69 284.81 911.66
  Q 284.70 912.01 284.35 911.90
  Q 283.32 911.59 282.90 912.52
  A 0.68 0.68 0.0 0 1 282.14 912.91
  Q 281.12 912.69 280.81 913.66
  Q 280.70 914.00 280.36 913.90
  Q 279.34 913.60 278.88 914.52
  Q 278.60 915.08 278.01 914.88
  Q 277.33 914.66 277.07 915.30
  Q 276.80 915.98 276.07 915.88
  Q 275.12 915.74 274.82 916.64
  Q 274.70 917.00 274.34 916.89
  Q 273.31 916.60 272.86 917.56
  A 0.64 0.63 20.8 0 1 272.09 917.90
  Q 271.71 917.79 271.36 917.97
  Q 270.96 918.17 270.84 918.60
  Q 270.70 919.03 270.27 918.91
  Q 268.84 918.54 267.92 919.57
  Q 267.57 919.96 267.04 919.92
  Q 266.46 919.86 266.15 920.35
  Q 265.81 920.89 265.18 920.90
  Q 264.30 920.90 263.86 921.67
  A 0.50 0.49 22.6 0 1 263.29 921.90
  Q 262.32 921.60 261.92 922.50
  A 0.71 0.71 0.0 0 1 261.12 922.91
  Q 260.12 922.69 259.82 923.64
  Q 259.70 924.01 259.33 923.90
  Q 258.33 923.59 257.91 924.51
  A 0.70 0.69 -71.9 0 1 257.13 924.91
  Q 256.12 924.69 255.81 925.65
  Q 255.70 926.01 255.33 925.90
  Q 254.32 925.59 253.91 926.51
  A 0.70 0.69 -71.9 0 1 253.13 926.91
  Q 252.12 926.69 251.81 927.66
  Q 251.70 928.01 251.35 927.90
  Q 250.32 927.59 249.90 928.52
  A 0.68 0.68 0.0 0 1 249.14 928.91
  Q 248.12 928.69 247.81 929.66
  Q 247.70 930.01 247.35 929.90
  Q 246.32 929.59 245.90 930.52
  A 0.68 0.68 0.0 0 1 245.14 930.91
  Q 244.12 930.69 243.81 931.66
  Q 243.70 932.00 243.36 931.90
  Q 242.33 931.59 241.89 932.53
  A 0.66 0.66 0.0 0 1 241.15 932.90
  Q 240.12 932.69 239.81 933.66
  Q 239.70 934.00 239.36 933.90
  Q 238.34 933.60 237.88 934.52
  Q 237.60 935.08 237.01 934.88
  Q 236.33 934.66 236.07 935.30
  Q 235.80 935.98 235.07 935.88
  Q 234.12 935.74 233.82 936.64
  Q 233.70 937.00 233.34 936.89
  Q 232.31 936.60 231.86 937.56
  A 0.64 0.63 20.7 0 1 231.10 937.90
  Q 230.71 937.79 230.35 937.97
  Q 229.96 938.17 229.84 938.60
  Q 229.71 939.03 229.27 938.91
  Q 227.84 938.54 226.92 939.57
  Q 226.57 939.96 226.04 939.92
  Q 225.45 939.86 225.14 940.36
  Q 224.81 940.89 224.18 940.89
  Q 223.30 940.90 222.85 941.68
  A 0.46 0.46 0.0 0 1 222.31 941.90
  Q 221.32 941.60 220.92 942.50
  A 0.72 0.71 -71.7 0 1 220.12 942.91
  Q 219.12 942.69 218.81 943.65
  Q 218.70 944.01 218.34 943.90
  Q 217.32 943.59 216.91 944.52
  A 0.69 0.69 0.0 0 1 216.13 944.91
  Q 215.13 944.69 214.81 945.65
  Q 214.70 946.01 214.33 945.90
  Q 213.32 945.59 212.91 946.52
  A 0.69 0.69 0.0 0 1 212.13 946.91
  Q 211.13 946.69 210.81 947.64
  Q 210.70 948.01 210.33 947.90
  Q 209.32 947.59 208.91 948.52
  A 0.69 0.69 0.0 0 1 208.13 948.91
  Q 207.13 948.69 206.81 949.65
  Q 206.70 950.01 206.33 949.90
  Q 205.32 949.59 204.91 950.52
  A 0.69 0.69 0.0 0 1 204.13 950.91
  Q 203.13 950.69 202.81 951.64
  Q 202.70 952.01 202.33 951.90
  Q 201.32 951.59 200.91 952.52
  A 0.69 0.69 0.0 0 1 200.13 952.91
  Q 199.13 952.69 198.81 953.65
  Q 198.70 954.01 198.33 953.90
  Q 197.32 953.59 196.91 954.52
  A 0.69 0.68 -71.5 0 1 196.14 954.91
  Q 195.12 954.68 194.81 955.66
  Q 194.70 956.01 194.35 955.90
  Q 193.37 955.61 192.90 956.49
  Q 192.67 956.92 192.18 956.95
  L 187.96 957.21
  Q 187.41 957.24 187.40 957.79
  L 187.38 958.30
  Q 187.36 958.88 186.79 958.95
  Q 186.34 959.00 186.07 959.42
  Q 185.73 959.97 185.07 959.94
  Q 184.32 959.90 183.93 960.59
  Q 183.69 961.01 183.22 960.88
  Q 182.31 960.63 181.93 961.48
  A 0.71 0.71 0.0 0 1 181.13 961.90
  Q 180.12 961.69 179.81 962.64
  Q 179.70 963.01 179.33 962.90
  Q 178.32 962.59 177.91 963.52
  A 0.69 0.68 -71.7 0 1 177.15 963.91
  Q 176.12 963.68 175.81 964.66
  Q 175.70 965.00 175.35 964.90
  Q 174.32 964.58 173.90 965.52
  A 0.67 0.67 0.0 0 1 173.15 965.91
  Q 172.12 965.68 171.81 966.66
  Q 171.70 967.01 171.35 966.90
  Q 170.32 966.59 169.90 967.52
  A 0.68 0.68 0.0 0 1 169.14 967.91
  Q 168.12 967.69 167.81 968.66
  Q 167.70 969.01 167.35 968.90
  Q 166.32 968.59 165.90 969.52
  A 0.68 0.68 0.0 0 1 165.14 969.91
  Q 164.12 969.69 163.81 970.66
  Q 163.70 971.01 163.35 970.90
  Q 162.32 970.59 161.90 971.52
  A 0.68 0.68 0.0 0 1 161.14 971.91
  Q 160.12 971.69 159.81 972.66
  Q 159.70 973.00 159.36 972.90
  Q 158.34 972.60 157.88 973.52
  Q 157.60 974.08 157.01 973.88
  Q 156.33 973.66 156.07 974.30
  Q 155.80 974.98 155.08 974.88
  Q 154.12 974.74 153.82 975.64
  Q 153.70 976.00 153.34 975.89
  Q 152.31 975.60 151.87 976.56
  A 0.66 0.65 21.0 0 1 151.09 976.90
  Q 150.71 976.79 150.36 976.97
  Q 149.96 977.17 149.84 977.60
  Q 149.71 978.03 149.27 977.91
  Q 147.84 977.54 146.92 978.57
  Q 146.57 978.96 146.04 978.92
  Q 145.46 978.86 145.14 979.36
  Q 144.81 979.89 144.18 979.89
  Q 143.30 979.90 142.85 980.68
  A 0.46 0.46 0.0 0 1 142.31 980.90
  Q 141.32 980.60 140.91 981.51
  A 0.70 0.68 17.4 0 1 140.14 981.90
  Q 139.12 981.69 138.80 982.67
  Q 138.70 982.99 138.38 982.90
  Q 137.29 982.57 136.86 983.60
  Q 136.68 984.00 136.26 983.88
  Q 135.31 983.62 134.91 984.50
  Q 134.69 985.01 134.16 984.88
  Q 133.27 984.67 132.93 985.50
  A 0.66 0.66 0.0 0 1 132.13 985.89
  Q 131.36 985.66 130.99 986.37
  Q 130.61 987.13 129.79 986.90
  Q 128.57 986.55 127.91 987.44
  Q 127.59 987.88 127.06 987.88
  L 125.75 987.88
  Q 125.08 987.88 124.92 988.54
  Q 124.80 989.00 124.90 989.47
  Q 125.03 990.07 124.43 989.90
  Q 123.43 989.61 122.91 990.44
  Q 122.69 990.81 122.25 990.86
  Q 117.74 991.38 114.60 988.83
  Q 113.08 987.60 112.69 985.52
  C 112.35 983.70 113.53 982.24 113.84 980.45
  Q 113.93 979.95 113.61 979.55
  L 111.83 977.31
  Q 111.50 976.90 111.02 976.71
  Q 110.05 976.32 109.50 975.47
  Q 109.21 975.03 108.71 974.94
  L 105.26 974.29
  A 2.69 2.69 0.0 0 1 103.07 971.79
  Q 103.01 970.67 102.56 969.86
  Q 102.12 969.07 101.89 968.12
  Q 100.99 964.44 100.68 961.06
  Q 100.53 959.44 99.94 957.92
  Q 99.39 956.51 98.91 955.15
  Q 98.68 954.51 98.07 954.23
  Q 97.33 953.90 96.90 953.20
  A 2.06 2.04 86.7 0 0 96.03 952.42
  Q 91.55 950.19 88.74 946.92
  Q 87.80 945.82 88.00 944.37
  Q 88.12 943.47 88.12 942.57
  Q 88.11 925.16 88.13 907.72
  Q 88.13 907.26 88.56 907.08
  Q 88.83 906.98 88.97 906.70
  Q 89.12 906.40 89.12 906.07
  L 89.12 896.75
  Q 89.12 896.25 89.58 896.07
  Q 89.77 896.00 89.89 895.85
  A 1.51 0.84 76.3 0 0 90.12 895.00
  L 90.12 890.93
  Q 90.12 890.40 90.55 890.08
  Q 91.46 889.39 91.09 888.07
  Q 90.93 887.48 91.44 887.15
  Q 92.51 886.46 92.08 885.07
  A 0.82 0.82 0.0 0 1 92.43 884.14
  Q 93.51 883.47 93.08 882.11
  A 0.87 0.86 -22.0 0 1 93.53 881.07
  Q 94.40 880.65 94.09 879.71
  A 0.44 0.44 0.0 0 1 94.38 879.16
  Q 95.25 878.89 95.12 877.95
  A 0.96 0.96 0.0 0 1 95.71 876.92
  Q 96.34 876.67 96.11 876.02
  A 0.76 0.76 0.0 0 1 96.51 875.08
  Q 97.35 874.69 97.12 873.81
  Q 96.99 873.32 97.46 873.11
  Q 98.42 872.69 98.10 871.66
  Q 97.99 871.28 98.37 871.17
  Q 99.25 870.90 99.10 870.01
  Q 98.99 869.38 99.53 869.03
  Q 101.03 868.09 101.20 866.58
  Q 101.25 866.13 101.64 865.90
  Q 102.94 865.14 103.17 863.73
  Q 103.25 863.26 103.63 862.98
  Q 104.78 862.09 105.12 860.74
  Q 105.24 860.24 105.65 859.94
  Q 106.88 859.00 107.15 857.66
  Q 107.23 857.22 107.61 856.95
  Q 108.91 856.04 109.17 854.62
  A 0.95 0.93 78.0 0 1 109.55 854.02
  Q 110.91 853.02 111.17 851.58
  Q 111.23 851.23 111.53 851.02
  Q 112.90 850.04 113.17 848.60
  Q 113.24 848.24 113.54 848.02
  Q 114.92 847.01 115.18 845.56
  Q 115.23 845.25 115.49 845.06
  Q 116.92 844.03 117.17 842.59
  Q 117.23 842.21 117.57 842.04
  Q 118.28 841.68 118.16 840.89
  Q 118.06 840.25 118.62 839.93
  Q 120.00 839.12 120.17 837.74
  A 1.29 1.27 -12.5 0 1 120.76 836.83
  Q 122.02 836.05 122.14 834.77
  Q 122.20 834.19 122.69 833.89
  Q 124.03 833.06 124.14 831.77
  Q 124.18 831.22 124.69 830.99
  Q 125.14 830.79 125.10 830.31
  Q 125.04 829.65 125.67 829.85
  Q 125.83 829.90 125.99 829.77
  Q 126.12 829.66 126.12 829.48
  L 126.12 829.06
  Q 126.12 828.55 126.48 828.18
  L 127.88 826.75
  Q 128.12 826.50 128.12 826.16
  L 128.12 825.71
  Q 128.12 825.45 128.31 825.27
  L 129.86 823.80
  Q 130.12 823.56 130.12 823.21
  L 130.12 822.71
  Q 130.12 822.45 130.31 822.27
  L 131.84 820.82
  Q 132.15 820.53 132.14 820.12
  Q 132.13 819.97 132.10 819.83
  Q 132.04 819.53 132.26 819.31
  L 133.86 817.80
  Q 134.12 817.56 134.12 817.21
  L 134.12 816.71
  Q 134.12 816.45 134.31 816.27
  L 135.81 814.85
  Q 136.20 814.49 136.13 813.95
  Q 136.11 813.79 136.11 813.63
  Q 136.11 813.33 136.37 813.18
  Q 137.84 812.31 138.23 810.61
  Q 138.35 810.09 138.79 809.81
  Q 140.04 809.02 140.14 807.70
  Q 140.18 807.25 140.54 806.99
  Q 142.47 805.62 143.20 803.59
  Q 143.36 803.17 143.72 802.89
  Q 144.79 802.06 145.08 800.82
  Q 145.17 800.43 145.45 800.16
  L 146.89 798.76
  A 0.75 0.74 68.3 0 0 147.12 798.22
  L 147.12 797.71
  Q 147.12 797.45 147.31 797.27
  L 148.87 795.80
  Q 149.12 795.56 149.12 795.21
  L 149.12 794.73
  Q 149.12 794.47 149.31 794.29
  L 151.87 791.77
  Q 152.12 791.53 152.12 791.18
  L 152.12 790.75
  Q 152.12 790.49 152.30 790.30
  L 156.80 785.84
  Q 157.06 785.57 157.11 785.20
  Q 157.33 783.39 159.07 783.13
  Q 159.55 783.05 159.89 782.72
  L 164.28 778.36
  Q 164.61 778.04 165.07 778.10
  Q 165.22 778.12 165.38 778.12
  Q 165.58 778.11 165.71 777.97
  L 167.19 776.42
  Q 167.54 776.05 168.04 776.12
  Q 168.90 776.23 169.15 775.40
  A 0.45 0.45 0.0 0 1 169.72 775.10
  Q 170.68 775.40 171.09 774.49
  Q 171.31 773.99 171.84 774.12
  Q 172.73 774.33 173.07 773.49
  A 0.66 0.65 18.9 0 1 173.86 773.11
  Q 174.66 773.34 175.02 772.61
  Q 175.39 771.87 176.17 772.10
  Q 177.50 772.49 178.17 771.40
  A 0.64 0.64 0.0 0 1 178.91 771.12
  Q 179.68 771.34 179.99 770.61
  Q 180.19 770.15 180.70 770.12
  Q 181.78 770.07 182.96 770.14
  Q 183.46 770.17 183.86 769.90
  Q 184.01 769.79 184.06 769.62
  Q 184.28 768.89 185.02 769.10
  Q 186.45 769.49 187.18 768.42
  Q 187.39 768.12 187.75 768.12
  L 190.15 768.12
  Q 190.76 768.12 191.05 767.58
  L 191.22 767.26
  Q 191.32 767.08 191.52 767.09
  Q 193.43 767.14 195.15 767.12
  Q 195.53 767.12 195.85 766.90
  Q 196.00 766.79 196.05 766.62
  Q 196.18 766.23 196.59 766.21
  Q 205.68 765.77 215.11 766.14
  Q 215.76 766.16 216.11 766.73
  Q 216.31 767.05 216.68 767.00
  Q 217.42 766.89 218.28 767.08
  Q 218.70 767.18 218.94 767.54
  Q 219.58 768.49 220.85 768.08
  A 0.90 0.90 0.0 0 1 221.92 768.52
  Q 222.40 769.47 223.57 769.06
  A 0.91 0.90 -89.2 0 0 224.12 768.52
  Q 224.35 767.91 224.95 768.12
  A 0.85 0.84 -65.4 0 0 225.96 767.74
  Q 226.23 767.27 226.13 766.73
  Q 226.04 766.16 226.60 766.06
  Q 226.77 766.02 226.88 765.87
  Q 227.13 765.50 227.13 765.06
  Q 227.11 759.00 227.13 752.95
  Q 227.13 752.47 226.88 752.10
  Q 226.80 751.98 226.66 751.95
  Q 226.09 751.83 226.11 751.26
  Q 226.14 750.01 226.12 748.89
  Q 226.11 748.48 225.87 748.11
  Q 225.80 748.00 225.65 747.97
  Q 225.09 747.85 225.10 747.28
  Q 225.14 745.49 225.12 743.86
  Q 225.11 743.48 224.92 743.14
  Q 224.84 742.98 224.67 742.95
  Q 224.09 742.85 224.10 742.26
  Q 224.14 740.49 224.12 738.89
  Q 224.12 738.48 223.87 738.11
  Q 223.77 737.97 223.56 737.96
  Q 223.07 737.95 223.09 737.47
  Q 223.14 736.12 223.12 734.89
  Q 223.12 734.48 222.87 734.11
  Q 222.80 734.00 222.66 733.97
  Q 222.09 733.86 222.10 733.28
  Q 222.14 731.49 222.12 729.86
  Q 222.11 729.48 221.92 729.14
  Q 221.84 728.98 221.67 728.95
  Q 221.09 728.85 221.10 728.26
  Q 221.14 726.49 221.12 724.87
  Q 221.11 724.49 220.92 724.14
  Q 220.84 723.98 220.67 723.95
  Q 220.09 723.85 220.10 723.26
  Q 220.14 721.49 220.12 719.89
  Q 220.12 719.48 219.87 719.11
  Q 219.77 718.97 219.56 718.96
  Q 219.07 718.96 219.09 718.47
  Q 219.14 717.12 219.12 715.89
  Q 219.12 715.48 218.87 715.11
  Q 218.80 715.00 218.66 714.97
  Q 218.09 714.86 218.10 714.28
  Q 218.14 712.49 218.12 710.87
  Q 218.11 710.49 217.92 710.14
  Q 217.84 709.98 217.67 709.95
  Q 217.09 709.85 217.10 709.26
  Q 217.14 707.49 217.12 705.89
  Q 217.12 705.47 216.87 705.11
  Q 216.78 704.97 216.56 704.97
  Q 216.08 704.96 216.09 704.47
  Q 216.14 703.12 216.13 701.89
  Q 216.12 701.47 215.87 701.11
  Q 215.80 701.00 215.65 700.97
  Q 215.08 700.84 215.10 700.24
  Q 215.15 699.01 215.11 697.85
  Q 215.10 697.48 214.92 697.14
  Q 214.82 696.97 214.63 696.94
  Q 214.00 696.84 214.14 696.21
  Q 214.32 695.39 213.64 695.00
  Q 213.22 694.76 213.14 694.29
  Q 213.10 694.06 213.06 693.83
  Q 212.99 693.47 212.74 693.20
  L 209.82 690.15
  A 0.96 0.95 66.6 0 0 209.09 689.86
  Q 208.96 689.87 208.83 689.89
  Q 208.59 689.93 208.40 689.76
  L 206.63 688.13
  A 1.08 1.05 57.5 0 0 205.61 687.89
  Q 204.53 688.21 204.02 687.34
  Q 203.75 686.88 203.21 686.88
  L 198.77 686.88
  Q 198.37 686.88 198.10 686.60
  L 197.91 686.41
  Q 197.74 686.24 197.50 686.23
  L 190.50 685.90
  Q 189.98 685.88 189.80 685.38
  Q 189.76 685.24 189.61 685.19
  Q 189.49 685.14 189.36 685.13
  Q 186.44 684.86 183.83 684.90
  Q 183.29 684.91 183.08 684.41
  Q 182.98 684.19 182.77 684.06
  Q 182.46 683.88 182.09 683.88
  L 177.75 683.88
  Q 177.26 683.88 177.09 683.43
  Q 176.96 683.12 176.62 682.99
  Q 176.32 682.88 176.00 682.88
  L 171.65 682.88
  A 0.67 0.55 50.9 0 1 171.41 682.83
  Q 171.03 682.65 171.07 682.30
  Q 171.08 682.18 170.96 682.18
  L 167.81 682.07
  Q 167.37 682.05 167.04 681.77
  Q 165.92 680.84 164.19 681.01
  Q 163.68 681.06 163.29 680.73
  Q 162.15 679.78 160.61 680.18
  A 0.64 0.64 0.0 0 1 159.84 679.76
  Q 159.69 679.30 159.17 679.17
  Q 158.92 679.12 158.70 679.00
  Q 157.44 678.36 156.50 677.45
  Q 153.64 674.68 153.98 670.85
  Q 154.02 670.51 154.24 670.24
  L 157.35 666.52
  A 0.97 0.97 0.0 0 0 157.58 665.92
  Q 157.70 660.82 154.27 658.45
  Q 153.75 658.08 153.50 657.49
  Q 152.86 655.95 151.83 654.50
  Q 150.89 653.17 150.40 651.39
  Q 149.23 647.21 148.05 643.14
  A 1.71 1.67 -81.5 0 0 147.38 642.21
  Q 145.92 641.19 144.33 641.04
  A 0.98 0.96 -68.2 0 0 143.47 641.42
  L 141.22 644.34
  A 0.85 0.84 -34.9 0 1 139.74 644.08
  Q 139.53 643.37 139.01 642.82
  A 1.70 1.67 22.9 0 1 138.57 641.77
  Q 138.48 639.56 137.77 637.48
  Q 137.60 636.95 137.66 636.41
  Q 137.73 635.75 137.40 635.21
  A 6.26 4.63 -66.8 0 1 136.65 632.04
  Q 136.67 631.53 136.37 631.10
  Q 135.58 629.90 135.70 628.35
  Q 135.76 627.62 135.28 627.06
  Q 134.97 626.71 134.91 626.25
  L 134.53 623.47
  A 0.54 0.49 -71.6 0 0 134.40 623.18
  C 133.26 621.88 134.44 620.33 133.10 618.84
  Q 132.79 618.49 132.86 618.02
  Q 133.15 616.21 132.15 614.87
  Q 131.82 614.42 131.88 613.87
  Q 132.08 612.06 131.12 610.84
  Q 130.82 610.46 130.87 609.98
  Q 131.10 608.07 130.09 606.68
  Q 129.79 606.26 129.86 605.75
  Q 130.07 604.22 129.28 603.03
  Q 129.01 602.63 128.96 602.15
  L 128.60 598.76
  Q 128.55 598.29 128.25 597.92
  C 127.41 596.84 128.26 595.38 127.29 594.05
  Q 127.00 593.66 126.95 593.17
  L 126.59 589.56
  Q 126.55 589.21 126.27 588.99
  Q 126.13 588.89 126.04 588.76
  Q 126.00 588.71 126.00 588.65
  Q 125.31 580.23 125.96 571.80
  A 1.72 1.69 66.2 0 1 126.29 570.92
  Q 126.90 570.11 126.87 569.02
  Q 126.85 568.51 127.16 568.11
  Q 128.37 566.53 128.66 564.58
  Q 128.70 564.26 128.95 564.05
  L 130.32 562.90
  Q 130.67 562.60 130.67 562.15
  Q 130.65 561.30 131.33 560.57
  Q 131.73 560.13 132.07 560.63
  Q 132.16 560.75 132.13 560.91
  Q 132.05 561.30 132.29 560.98
  Q 132.43 560.78 132.37 560.55
  Q 132.29 560.23 132.44 559.93
  Q 132.66 559.50 133.14 559.61
  Q 133.83 559.77 133.64 559.07
  Q 133.62 559.01 133.65 558.95
  Q 133.74 558.73 133.99 558.68
  Q 134.84 558.51 135.79 558.73
  Z"
/>
<path fill="#ffffff" d="
  M 135.79 558.73
  Q 135.74 558.54 135.70 558.34
  Q 140.51 557.81 147.00 558.72
  Q 249.46 573.11 351.91 587.58
  Q 352.42 587.65 352.78 588.02
  L 354.86 590.13
  Q 355.24 590.51 355.24 591.04
  Q 355.30 594.60 355.06 597.32
  Q 352.64 625.01 349.29 656.90
  A 5.39 5.38 -0.5 0 1 344.58 661.68
  L 305.79 666.34
  Q 305.40 666.39 305.55 666.75
  Q 322.44 708.33 340.08 752.44
  Q 340.43 753.33 341.11 754.13
  Q 341.45 754.53 341.47 755.06
  C 341.55 756.97 341.52 758.75 341.23 760.66
  Q 332.72 817.39 325.23 867.13
  A 4.74 4.73 82.7 0 1 322.42 870.78
  Q 317.75 872.80 312.50 875.37
  Q 215.62 922.68 118.67 969.98
  Q 115.70 971.43 112.99 972.50
  Q 111.21 973.20 107.27 973.12
  C 105.56 973.08 104.10 971.56 104.04 969.90
  C 103.84 963.77 104.21 957.63 104.24 951.52
  Q 104.37 924.82 104.65 897.43
  Q 104.72 891.29 104.52 885.71
  Q 104.50 885.21 104.78 884.80
  Q 129.85 846.85 154.90 808.91
  C 155.67 807.76 156.82 806.86 157.64 805.63
  Q 163.89 796.14 170.33 786.53
  C 171.30 785.09 172.94 783.27 174.75 782.85
  Q 192.70 778.67 210.37 774.23
  C 212.50 773.70 214.53 773.83 216.70 773.83
  Q 217.32 773.83 217.76 774.27
  L 219.59 776.11
  A 1.29 1.26 -67.4 0 1 219.97 777.07
  C 219.92 778.68 220.08 780.37 219.84 781.97
  Q 216.90 801.76 214.01 821.56
  Q 213.93 822.08 214.42 821.91
  L 255.22 808.27
  Q 255.77 808.09 255.65 807.52
  L 226.54 669.97
  Q 226.35 669.09 225.47 668.97
  Q 193.08 664.52 160.64 660.09
  C 157.03 659.60 155.73 658.08 154.84 654.46
  Q 148.00 626.55 141.15 598.85
  C 138.53 588.24 136.36 577.70 134.22 567.23
  C 133.79 565.18 133.81 563.32 133.88 561.26
  Q 133.89 560.76 134.23 560.40
  L 135.79 558.73
  Z
  M 296.20 661.18
  L 298.15 659.22
  Q 298.59 658.78 299.21 658.71
  L 340.71 653.66
  Q 341.28 653.60 341.34 653.02
  L 346.97 595.58
  A 0.21 0.21 0.0 0 0 346.79 595.35
  L 143.10 566.67
  Q 142.56 566.60 142.78 567.10
  Q 143.27 568.23 143.61 569.93
  Q 146.04 582.33 149.33 595.59
  Q 156.25 623.49 163.12 651.38
  Q 163.24 651.88 163.75 651.95
  L 229.96 661.11
  A 5.25 5.24 -2.0 0 1 234.37 665.22
  Q 249.40 736.28 264.20 806.00
  C 264.65 808.12 264.61 810.15 264.57 812.27
  Q 264.56 812.76 264.22 813.12
  C 262.99 814.40 262.01 815.34 260.23 815.93
  Q 236.56 823.81 213.75 831.44
  Q 211.81 832.09 207.93 831.68
  Q 207.42 831.63 207.06 831.27
  L 205.42 829.62
  Q 205.05 829.26 205.02 828.74
  Q 204.86 825.99 205.18 823.76
  Q 208.00 804.27 211.01 783.59
  Q 211.08 783.07 210.57 783.20
  L 178.26 791.01
  A 1.04 1.01 -79.1 0 0 177.63 791.45
  Q 171.42 800.91 165.14 810.40
  C 164.31 811.65 163.19 812.52 162.38 813.74
  Q 135.51 854.31 113.06 888.37
  Q 112.73 888.87 112.73 889.46
  L 112.14 963.03
  A 0.08 0.08 0.0 0 0 112.26 963.10
  L 316.78 863.38
  Q 317.23 863.17 317.30 862.68
  L 332.89 759.01
  Q 332.98 758.41 332.75 757.85
  Q 314.37 712.51 296.35 667.59
  Q 295.47 665.41 295.80 662.03
  Q 295.85 661.53 296.20 661.18
  Z"
/>
<path fill="#d41b16" d="
  M 295.80 662.03
  Q 295.47 665.41 296.35 667.59
  Q 314.37 712.51 332.75 757.85
  Q 332.98 758.41 332.89 759.01
  L 317.30 862.68
  Q 317.23 863.17 316.78 863.38
  L 112.26 963.10
  A 0.08 0.08 0.0 0 1 112.14 963.03
  L 112.73 889.46
  Q 112.73 888.87 113.06 888.37
  Q 135.51 854.31 162.38 813.74
  C 163.19 812.52 164.31 811.65 165.14 810.40
  Q 171.42 800.91 177.63 791.45
  A 1.04 1.01 -79.1 0 1 178.26 791.01
  L 210.57 783.20
  Q 211.08 783.07 211.01 783.59
  Q 208.00 804.27 205.18 823.76
  Q 204.86 825.99 205.02 828.74
  Q 205.05 829.26 205.42 829.62
  L 207.06 831.27
  Q 207.42 831.63 207.93 831.68
  Q 211.81 832.09 213.75 831.44
  Q 236.56 823.81 260.23 815.93
  C 262.01 815.34 262.99 814.40 264.22 813.12
  Q 264.56 812.76 264.57 812.27
  C 264.61 810.15 264.65 808.12 264.20 806.00
  Q 249.40 736.28 234.37 665.22
  A 5.25 5.24 -2.0 0 0 229.96 661.11
  L 163.75 651.95
  Q 163.24 651.88 163.12 651.38
  Q 156.25 623.49 149.33 595.59
  Q 146.04 582.33 143.61 569.93
  Q 143.27 568.23 142.78 567.10
  Q 142.56 566.60 143.10 566.67
  L 346.79 595.35
  A 0.21 0.21 0.0 0 1 346.97 595.58
  L 341.34 653.02
  Q 341.28 653.60 340.71 653.66
  L 299.21 658.71
  Q 298.59 658.78 298.15 659.22
  L 296.20 661.18
  Q 295.85 661.53 295.80 662.03
  Z"
/>
<path fill="#000000" fill-opacity="0.051" d="
  M 138.02 1432.75
  C 137.23 1431.89 137.11 1430.76 136.39 1429.77
  Q 135.48 1428.51 134.62 1427.42
  Q 133.71 1426.28 133.37 1424.96
  Q 132.25 1420.67 131.08 1416.71
  Q 130.93 1416.22 130.48 1415.98
  C 128.14 1414.79 126.65 1417.39 125.36 1418.86
  Q 125.00 1419.27 124.89 1419.81
  C 124.52 1421.53 122.40 1422.43 121.15 1420.97
  Q 120.41 1420.11 120.33 1419.00
  Q 120.29 1418.52 119.98 1418.15
  Q 119.49 1417.56 119.34 1416.80
  Q 118.76 1413.70 118.92 1410.87
  Q 119.12 1407.17 119.12 1407.12
  Q 119.12 1240.37 119.12 1073.62
  Q 119.12 1073.12 119.61 1073.04
  Q 119.79 1073.00 119.89 1072.85
  Q 120.12 1072.51 120.12 1072.11
  Q 120.15 1069.50 120.08 1066.81
  Q 120.07 1066.27 120.58 1066.09
  Q 120.78 1066.01 120.91 1065.83
  A 1.32 1.31 63.2 0 0 121.14 1065.12
  Q 121.15 1063.50 121.08 1061.86
  Q 121.06 1061.31 121.55 1061.06
  Q 122.36 1060.66 122.12 1059.75
  A 0.49 0.49 0.0 0 1 122.36 1059.18
  Q 123.50 1058.54 123.10 1057.17
  Q 122.88 1056.40 123.59 1056.03
  Q 124.31 1055.66 124.15 1054.83
  Q 124.03 1054.21 124.62 1053.98
  Q 125.28 1053.72 125.15 1053.02
  Q 125.06 1052.54 125.41 1052.20
  L 126.87 1050.78
  Q 127.12 1050.54 127.12 1050.19
  L 127.12 1049.71
  Q 127.12 1049.45 127.31 1049.27
  L 128.82 1047.84
  A 1.02 1.01 68.5 0 0 129.14 1047.10
  Q 129.14 1046.94 129.11 1046.78
  Q 129.07 1046.55 129.23 1046.38
  L 145.13 1030.49
  Q 145.48 1030.14 145.98 1030.14
  Q 146.30 1030.14 146.53 1029.92
  Q 150.71 1026.03 154.89 1021.70
  Q 155.24 1021.33 155.75 1021.39
  Q 156.03 1021.42 156.24 1021.23
  Q 158.89 1018.86 161.17 1016.41
  Q 161.46 1016.10 161.89 1016.09
  Q 162.03 1016.08 162.16 1016.11
  Q 162.48 1016.18 162.71 1015.95
  L 164.23 1014.38
  Q 164.52 1014.08 164.93 1014.09
  Q 165.06 1014.10 165.19 1014.13
  Q 165.49 1014.20 165.70 1013.97
  L 167.19 1012.41
  Q 167.54 1012.05 168.04 1012.11
  Q 168.89 1012.23 169.15 1011.40
  A 0.45 0.44 16.5 0 1 169.69 1011.11
  Q 170.70 1011.38 171.11 1010.45
  Q 171.32 1009.99 171.81 1010.10
  Q 173.12 1010.37 174.27 1009.75
  Q 174.62 1009.57 174.91 1009.84
  Q 175.29 1010.20 175.87 1010.11
  Q 178.14 1009.77 179.50 1009.06
  A 0.99 0.95 -60.3 0 1 179.77 1008.98
  L 183.01 1008.66
  Q 183.62 1008.60 183.62 1007.99
  L 183.62 1007.68
  Q 183.62 1007.25 184.02 1007.07
  C 185.63 1006.38 186.91 1006.95 188.55 1006.93
  Q 193.21 1006.89 198.08 1006.74
  Q 198.50 1006.73 198.79 1007.04
  Q 198.88 1007.14 198.91 1007.28
  Q 199.01 1008.02 199.76 1008.04
  L 203.51 1008.12
  Q 204.00 1008.13 203.98 1008.63
  Q 203.98 1008.78 204.10 1008.87
  Q 204.24 1008.96 204.41 1008.96
  Q 206.23 1009.00 208.28 1009.12
  Q 208.82 1009.16 209.00 1009.67
  Q 209.08 1009.90 209.29 1010.01
  Q 209.48 1010.11 209.69 1010.11
  Q 211.01 1010.17 212.45 1010.07
  Q 212.97 1010.04 213.14 1010.53
  Q 213.24 1010.82 213.50 1010.98
  A 0.52 0.51 51.9 0 0 213.90 1011.03
  Q 215.59 1010.55 216.96 1011.52
  Q 218.62 1012.70 220.96 1011.79
  Q 221.46 1011.60 221.88 1011.93
  Q 222.17 1012.17 222.37 1012.49
  Q 222.68 1013.02 223.29 1012.99
  L 225.12 1012.89
  Q 225.83 1012.85 225.91 1013.55
  Q 225.96 1014.00 226.41 1014.06
  Q 227.75 1014.21 229.13 1014.07
  Q 229.73 1014.02 229.92 1014.59
  Q 229.99 1014.77 230.14 1014.89
  A 1.21 1.20 62.4 0 0 230.93 1015.14
  Q 232.75 1015.10 234.45 1015.11
  Q 234.95 1015.11 235.04 1015.61
  Q 235.11 1016.10 235.61 1016.15
  Q 236.03 1016.19 236.42 1016.01
  Q 238.19 1015.20 239.18 1016.71
  Q 239.44 1017.12 239.93 1017.12
  L 242.38 1017.12
  A 0.54 0.54 0.0 0 1 242.90 1017.51
  Q 242.97 1017.76 243.17 1017.91
  A 1.36 1.29 -25.7 0 0 243.89 1018.14
  Q 245.08 1018.15 246.29 1018.07
  A 0.58 0.58 0.0 0 1 246.90 1018.51
  Q 246.97 1018.75 247.15 1018.89
  A 1.22 1.20 -26.0 0 0 247.93 1019.15
  Q 249.76 1019.10 251.44 1019.12
  Q 251.76 1019.13 252.02 1019.31
  Q 253.34 1020.28 255.06 1019.81
  A 0.81 0.80 0.7 0 1 256.06 1020.82
  Q 256.04 1020.88 256.09 1020.91
  Q 256.68 1021.28 257.31 1021.05
  Q 258.94 1020.45 260.08 1021.73
  Q 260.43 1022.12 260.95 1022.12
  L 263.34 1022.12
  A 0.61 0.61 0.0 0 1 263.92 1022.55
  Q 264.07 1023.03 264.75 1023.13
  A 1.32 0.99 -34.7 0 0 265.02 1023.14
  Q 266.67 1022.96 268.45 1022.82
  Q 268.94 1022.79 269.11 1023.24
  Q 269.24 1023.56 269.55 1023.71
  Q 270.98 1024.42 272.48 1023.98
  Q 272.72 1023.91 272.79 1024.15
  Q 273.24 1025.59 274.86 1025.08
  Q 275.55 1024.87 275.89 1025.50
  Q 276.41 1026.47 277.56 1026.08
  A 1.15 1.15 0.0 0 1 278.84 1026.48
  Q 279.60 1027.48 280.99 1027.09
  Q 281.54 1026.94 281.84 1027.42
  Q 282.53 1028.51 283.90 1028.08
  A 0.85 0.85 0.0 0 1 284.92 1028.52
  Q 285.33 1029.36 286.28 1029.10
  Q 286.68 1028.99 286.83 1029.38
  Q 287.17 1030.31 288.15 1030.09
  Q 288.70 1029.97 288.90 1030.50
  Q 289.14 1031.18 289.85 1031.12
  Q 290.42 1031.07 290.83 1031.48
  L 293.26 1033.88
  Q 293.50 1034.12 293.85 1034.12
  L 294.26 1034.12
  Q 294.52 1034.12 294.71 1034.31
  L 298.64 1038.29
  Q 298.90 1038.55 298.90 1038.93
  Q 298.91 1039.06 298.87 1039.19
  Q 298.80 1039.49 299.02 1039.70
  L 300.60 1041.20
  Q 300.91 1041.49 300.91 1041.91
  Q 300.91 1042.03 300.88 1042.16
  Q 300.82 1042.48 301.05 1042.71
  L 302.52 1044.17
  Q 302.93 1044.57 302.88 1045.14
  Q 302.82 1045.84 303.48 1046.10
  A 0.77 0.77 0.0 0 1 303.93 1047.06
  Q 303.47 1048.47 304.59 1049.16
  A 0.78 0.77 -65.9 0 1 304.92 1050.03
  Q 304.49 1051.45 305.59 1052.19
  Q 305.88 1052.39 305.88 1052.74
  L 305.88 1055.15
  Q 305.88 1055.76 306.42 1056.05
  L 306.74 1056.22
  Q 306.89 1056.31 306.89 1056.49
  Q 306.88 1059.12 306.87 1062.02
  Q 306.87 1062.51 307.11 1062.89
  Q 307.20 1063.03 307.37 1063.06
  Q 307.89 1063.15 307.89 1063.69
  Q 307.87 1067.55 307.89 1071.09
  Q 307.89 1071.52 308.11 1071.87
  Q 308.20 1072.03 308.38 1072.06
  Q 308.89 1072.15 308.89 1072.66
  Q 308.87 1078.03 308.89 1083.11
  Q 308.89 1083.51 309.09 1083.86
  Q 309.18 1084.02 309.36 1084.06
  Q 309.89 1084.16 309.89 1084.71
  Q 309.86 1090.52 309.88 1096.10
  Q 309.89 1096.50 310.10 1096.87
  Q 310.17 1097.00 310.33 1097.03
  Q 310.90 1097.15 310.89 1097.73
  Q 310.86 1103.07 310.89 1108.08
  Q 310.89 1108.50 311.12 1108.86
  Q 311.23 1109.02 311.41 1109.09
  Q 311.88 1109.25 311.88 1109.74
  L 311.88 1116.71
  Q 311.88 1117.02 312.18 1117.10
  Q 312.49 1117.18 312.44 1117.47
  Q 312.16 1119.08 312.54 1120.53
  Q 312.88 1121.79 312.88 1123.17
  Q 312.88 1127.46 312.88 1132.00
  Q 312.87 1132.50 313.12 1132.89
  Q 313.21 1133.03 313.37 1133.06
  Q 313.89 1133.15 313.89 1133.69
  Q 313.86 1139.53 313.89 1145.10
  Q 313.89 1145.49 314.09 1145.86
  Q 314.17 1146.02 314.34 1146.05
  Q 314.89 1146.16 314.89 1146.72
  Q 314.86 1152.05 314.89 1157.06
  Q 314.89 1157.50 315.13 1157.88
  Q 315.20 1158.00 315.35 1158.04
  Q 315.90 1158.15 315.89 1158.70
  Q 315.86 1164.04 315.88 1169.07
  Q 315.89 1169.50 316.13 1169.88
  Q 316.23 1170.02 316.40 1170.08
  Q 316.88 1170.24 316.88 1170.74
  L 316.88 1199.25
  Q 316.88 1199.85 317.44 1200.06
  Q 318.02 1200.28 317.90 1200.90
  Q 317.80 1201.43 318.18 1201.80
  L 321.18 1204.81
  Q 321.58 1205.21 322.14 1205.13
  Q 322.76 1205.04 323.01 1205.60
  Q 323.36 1206.39 324.19 1206.14
  Q 325.38 1205.78 326.04 1206.66
  Q 326.38 1207.12 326.95 1207.12
  L 330.06 1207.12
  Q 330.63 1207.12 330.96 1207.59
  Q 331.62 1208.52 332.72 1207.98
  Q 333.44 1207.62 333.89 1208.29
  Q 334.80 1209.67 336.36 1208.86
  Q 336.90 1208.58 336.98 1209.19
  Q 337.17 1210.65 338.77 1210.04
  A 0.97 0.96 68.9 0 1 340.02 1210.60
  Q 340.31 1211.34 341.03 1211.12
  Q 341.59 1210.94 341.88 1211.45
  Q 342.30 1212.16 343.17 1212.08
  Q 343.53 1212.04 343.68 1212.38
  Q 344.07 1213.30 345.05 1213.08
  A 0.76 0.76 0.0 0 1 345.90 1213.50
  Q 346.31 1214.35 347.21 1214.12
  Q 347.69 1214.00 347.88 1214.45
  Q 348.31 1215.42 349.35 1215.10
  Q 349.72 1214.99 349.83 1215.36
  Q 350.09 1216.26 351.00 1216.10
  Q 351.57 1216.00 351.90 1216.47
  Q 352.88 1217.84 354.40 1218.15
  Q 354.78 1218.22 354.95 1218.57
  Q 355.35 1219.37 356.23 1219.11
  Q 356.71 1218.98 356.87 1219.44
  Q 357.12 1220.22 357.92 1220.12
  Q 358.42 1220.05 358.78 1220.41
  L 360.27 1221.87
  A 0.62 0.62 0.0 0 0 360.68 1222.05
  Q 362.28 1222.09 362.57 1223.74
  C 362.76 1224.83 362.44 1225.71 362.97 1226.79
  Q 364.21 1229.37 364.33 1232.22
  A 1.92 1.90 -62.4 0 0 364.62 1233.16
  Q 365.57 1234.73 366.50 1236.37
  Q 367.48 1238.08 367.67 1239.84
  Q 368.03 1243.13 367.91 1245.83
  Q 367.70 1250.22 367.53 1255.27
  Q 367.48 1256.61 367.90 1257.88
  Q 368.93 1260.98 370.38 1264.44
  Q 371.08 1266.11 372.63 1267.08
  Q 375.14 1268.65 377.45 1269.86
  C 378.71 1270.53 379.09 1272.00 379.14 1273.35
  Q 379.15 1273.85 378.75 1274.05
  Q 378.35 1274.25 378.30 1274.69
  L 377.85 1278.46
  Q 377.81 1278.83 377.45 1278.94
  Q 377.26 1279.00 377.11 1279.13
  Q 376.98 1279.24 376.95 1279.41
  Q 376.69 1281.25 377.05 1283.20
  Q 377.12 1283.58 376.83 1283.83
  Q 375.20 1285.31 376.05 1287.99
  Q 376.22 1288.56 375.69 1288.80
  L 375.40 1288.94
  Q 374.86 1289.19 374.87 1289.78
  Q 374.88 1290.91 374.88 1292.16
  Q 374.89 1293.08 374.44 1294.24
  Q 373.72 1296.15 373.87 1298.27
  Q 373.89 1298.59 373.62 1298.80
  Q 373.25 1299.09 373.16 1299.56
  Q 372.75 1301.89 373.37 1303.51
  Q 373.60 1304.12 372.95 1304.13
  L 372.50 1304.13
  Q 371.88 1304.13 371.88 1304.75
  L 371.88 1308.38
  A 0.55 0.55 0.0 0 1 371.47 1308.91
  Q 370.97 1309.04 370.88 1309.78
  Q 370.88 1309.83 370.88 1309.89
  L 370.88 1313.26
  Q 370.88 1313.75 370.41 1313.92
  Q 369.90 1314.10 369.86 1314.99
  Q 369.86 1315.00 369.86 1315.00
  Q 369.86 1316.58 369.92 1318.20
  Q 369.95 1318.74 369.44 1318.91
  Q 368.96 1319.07 368.88 1319.76
  Q 368.88 1319.82 368.88 1319.87
  L 368.88 1322.25
  Q 368.88 1322.79 368.37 1322.96
  Q 368.22 1323.01 368.11 1323.13
  Q 367.98 1323.29 367.98 1323.49
  L 367.88 1326.26
  Q 367.87 1326.66 367.54 1326.88
  Q 366.52 1327.56 366.91 1328.95
  Q 367.06 1329.53 366.56 1329.85
  Q 365.51 1330.53 365.90 1331.94
  Q 366.05 1332.49 365.59 1332.83
  Q 364.32 1333.75 365.07 1335.26
  Q 365.29 1335.69 364.84 1335.86
  Q 363.83 1336.23 363.88 1337.31
  Q 363.90 1337.81 363.42 1337.96
  Q 362.83 1338.13 362.89 1338.75
  Q 362.94 1339.26 362.60 1339.65
  Q 361.56 1340.83 360.35 1341.71
  Q 359.32 1342.47 358.51 1343.65
  Q 356.90 1345.99 356.38 1348.59
  A 1.86 1.81 73.9 0 1 355.88 1349.53
  L 350.73 1354.62
  Q 350.41 1354.94 349.96 1354.90
  Q 349.79 1354.89 349.63 1354.89
  Q 349.46 1354.89 349.34 1355.02
  L 345.77 1358.62
  Q 345.53 1358.86 345.19 1358.90
  Q 345.01 1358.92 344.83 1358.88
  Q 344.52 1358.82 344.30 1359.05
  L 341.76 1361.63
  Q 341.52 1361.87 341.19 1361.90
  Q 341.01 1361.91 340.84 1361.88
  Q 340.52 1361.82 340.30 1362.05
  L 337.76 1364.63
  Q 337.53 1364.86 337.20 1364.90
  Q 337.02 1364.92 336.85 1364.88
  Q 336.52 1364.81 336.29 1365.05
  L 334.75 1366.64
  Q 334.52 1366.88 334.19 1366.90
  Q 334.01 1366.91 333.84 1366.88
  Q 333.52 1366.82 333.30 1367.05
  L 330.76 1369.63
  Q 330.53 1369.87 330.19 1369.90
  Q 330.02 1369.92 329.85 1369.88
  Q 329.52 1369.82 329.29 1370.05
  L 327.75 1371.64
  Q 327.51 1371.88 327.18 1371.90
  Q 327.01 1371.91 326.84 1371.88
  Q 326.52 1371.82 326.30 1372.05
  L 323.76 1374.63
  Q 323.52 1374.87 323.19 1374.90
  Q 323.01 1374.91 322.84 1374.88
  Q 322.52 1374.82 322.30 1375.05
  L 319.76 1377.63
  Q 319.53 1377.86 319.20 1377.90
  Q 319.02 1377.92 318.85 1377.88
  Q 318.52 1377.81 318.29 1378.05
  L 316.75 1379.64
  Q 316.51 1379.88 316.18 1379.90
  Q 316.01 1379.91 315.84 1379.88
  Q 315.52 1379.82 315.30 1380.05
  L 312.76 1382.63
  Q 312.52 1382.87 312.19 1382.90
  Q 312.01 1382.91 311.84 1382.88
  Q 311.52 1382.82 311.30 1383.05
  L 308.76 1385.63
  Q 308.53 1385.86 308.20 1385.90
  Q 308.02 1385.92 307.85 1385.88
  Q 307.52 1385.81 307.29 1386.05
  L 305.75 1387.64
  Q 305.51 1387.88 305.18 1387.90
  Q 305.01 1387.91 304.84 1387.88
  Q 304.52 1387.82 304.30 1388.05
  L 301.76 1390.63
  Q 301.52 1390.87 301.19 1390.90
  Q 301.01 1390.91 300.84 1390.88
  Q 300.52 1390.82 300.30 1391.05
  L 297.76 1393.63
  Q 297.53 1393.86 297.20 1393.90
  Q 297.02 1393.92 296.85 1393.88
  Q 296.52 1393.81 296.29 1394.05
  L 294.75 1395.64
  Q 294.52 1395.88 294.19 1395.90
  Q 294.01 1395.91 293.84 1395.88
  Q 293.52 1395.82 293.30 1396.05
  L 290.76 1398.63
  Q 290.53 1398.87 290.19 1398.90
  Q 290.02 1398.91 289.85 1398.88
  Q 289.52 1398.82 289.29 1399.05
  L 287.75 1400.64
  Q 287.51 1400.88 287.18 1400.90
  Q 287.01 1400.91 286.84 1400.88
  Q 286.53 1400.83 286.31 1401.05
  L 284.01 1403.35
  Q 283.66 1403.70 283.19 1403.81
  L 281.56 1404.17
  Q 281.26 1404.24 281.19 1404.54
  Q 280.75 1406.42 278.94 1406.92
  Q 277.73 1407.26 276.94 1408.47
  Q 276.67 1408.88 276.19 1408.88
  L 275.83 1408.88
  Q 275.48 1408.88 275.24 1409.12
  L 272.74 1411.64
  Q 272.50 1411.88 272.17 1411.90
  Q 272.00 1411.91 271.83 1411.88
  Q 271.52 1411.82 271.30 1412.05
  L 268.76 1414.63
  Q 268.53 1414.86 268.20 1414.90
  Q 268.02 1414.92 267.85 1414.88
  Q 267.52 1414.81 267.29 1415.05
  L 265.75 1416.64
  Q 265.51 1416.88 265.18 1416.90
  Q 265.01 1416.91 264.84 1416.88
  Q 264.52 1416.82 264.30 1417.05
  L 261.76 1419.63
  Q 261.52 1419.87 261.19 1419.90
  Q 261.01 1419.91 260.84 1419.88
  Q 260.52 1419.82 260.30 1420.05
  L 257.76 1422.63
  Q 257.53 1422.86 257.20 1422.90
  Q 257.02 1422.92 256.85 1422.88
  Q 256.52 1422.81 256.29 1423.05
  L 254.75 1424.64
  Q 254.52 1424.88 254.19 1424.90
  Q 254.01 1424.91 253.84 1424.88
  Q 253.52 1424.82 253.30 1425.05
  L 250.76 1427.63
  Q 250.53 1427.87 250.19 1427.90
  Q 250.02 1427.92 249.85 1427.88
  Q 249.52 1427.82 249.29 1428.05
  L 247.75 1429.64
  Q 247.51 1429.88 247.18 1429.90
  Q 247.01 1429.91 246.84 1429.88
  Q 246.52 1429.82 246.30 1430.05
  L 243.76 1432.63
  Q 243.52 1432.87 243.19 1432.90
  Q 243.01 1432.91 242.84 1432.88
  Q 242.52 1432.82 242.30 1433.05
  L 239.76 1435.63
  Q 239.53 1435.86 239.20 1435.90
  Q 239.02 1435.92 238.85 1435.88
  Q 238.52 1435.81 238.29 1436.05
  L 236.75 1437.64
  Q 236.51 1437.88 236.18 1437.90
  Q 236.01 1437.91 235.84 1437.88
  Q 235.52 1437.82 235.30 1438.05
  L 232.76 1440.63
  Q 232.52 1440.87 232.19 1440.90
  Q 232.01 1440.91 231.84 1440.88
  Q 231.52 1440.82 231.30 1441.05
  L 228.76 1443.63
  Q 228.53 1443.86 228.20 1443.90
  Q 228.02 1443.92 227.85 1443.88
  Q 227.52 1443.81 227.29 1444.05
  L 225.75 1445.64
  Q 225.52 1445.88 225.19 1445.90
  Q 225.01 1445.91 224.84 1445.88
  Q 224.52 1445.82 224.30 1446.05
  L 221.76 1448.63
  Q 221.52 1448.87 221.19 1448.90
  Q 221.02 1448.91 220.85 1448.88
  Q 220.52 1448.82 220.29 1449.05
  L 218.74 1450.64
  Q 218.51 1450.88 218.18 1450.90
  Q 218.00 1450.91 217.84 1450.88
  Q 217.52 1450.82 217.29 1451.05
  L 215.74 1452.65
  Q 215.51 1452.89 215.17 1452.90
  Q 215.00 1452.91 214.84 1452.88
  Q 214.52 1452.82 214.29 1453.05
  L 212.74 1454.65
  Q 212.51 1454.89 212.17 1454.90
  Q 212.01 1454.91 211.84 1454.88
  Q 211.52 1454.82 211.29 1455.05
  L 209.79 1456.59
  Q 209.46 1456.94 208.99 1456.86
  Q 208.38 1456.76 208.02 1457.26
  A 0.90 0.88 -71.6 0 1 207.30 1457.63
  L 206.80 1457.63
  Q 206.27 1457.63 205.89 1458.00
  Q 205.13 1458.75 203.95 1458.85
  Q 203.43 1458.89 203.05 1459.25
  Q 202.52 1459.77 201.77 1459.64
  A 1.36 1.33 -57.6 0 0 200.71 1459.89
  L 200.04 1460.39
  A 1.21 1.20 -60.9 0 1 199.21 1460.63
  Q 198.03 1460.53 197.06 1461.22
  Q 196.65 1461.51 196.14 1461.59
  L 193.36 1462.00
  Q 193.07 1462.05 192.97 1462.32
  L 192.88 1462.56
  Q 192.76 1462.89 192.41 1462.89
  Q 188.83 1462.88 184.97 1462.87
  Q 184.52 1462.87 184.13 1463.12
  Q 183.97 1463.22 183.92 1463.40
  Q 183.76 1463.88 183.26 1463.88
  L 174.48 1463.88
  A 0.45 0.44 88.6 0 1 174.04 1463.45
  Q 174.03 1463.22 173.85 1463.10
  Q 173.53 1462.88 173.13 1462.88
  Q 168.00 1462.86 162.78 1462.90
  Q 162.28 1462.91 162.09 1462.44
  Q 161.92 1462.01 161.36 1461.88
  Q 161.35 1461.88 161.34 1461.88
  L 156.76 1461.88
  Q 156.25 1461.88 156.02 1461.42
  Q 155.65 1460.68 154.83 1460.85
  Q 153.29 1461.18 151.68 1460.87
  Q 151.24 1460.79 150.93 1460.45
  Q 150.14 1459.57 148.93 1459.91
  A 0.66 0.66 0.0 0 1 148.18 1459.61
  Q 147.49 1458.48 146.10 1458.92
  A 0.86 0.86 0.0 0 1 145.07 1458.47
  Q 144.66 1457.61 143.73 1457.90
  A 0.47 0.47 0.0 0 1 143.14 1457.59
  Q 142.89 1456.78 142.06 1456.88
  Q 141.52 1456.94 141.14 1456.57
  Q 139.77 1455.26 138.72 1453.84
  Q 136.55 1450.90 138.27 1448.06
  Q 138.53 1447.63 138.99 1447.42
  Q 142.29 1445.95 143.83 1444.47
  Q 145.18 1443.17 144.73 1441.01
  Q 144.63 1440.51 144.23 1440.19
  Q 141.49 1437.89 139.51 1434.69
  Q 138.90 1433.72 138.02 1432.75
  Z
  M 257.59 1233.34
  Q 278.35 1216.92 297.88 1201.17
  Q 299.97 1199.49 301.86 1196.94
  Q 302.16 1196.54 302.18 1196.05
  Q 302.37 1191.12 302.24 1189.50
  Q 296.52 1119.60 290.44 1044.26
  A 5.80 5.79 -85.8 0 0 285.98 1039.08
  Q 239.77 1028.26 191.41 1016.91
  Q 185.50 1015.52 179.90 1016.13
  A 2.58 2.58 0.0 0 0 178.45 1016.78
  Q 159.52 1033.87 140.20 1051.46
  C 138.36 1053.14 135.00 1054.64 135.00 1057.52
  Q 135.06 1240.52 134.99 1422.10
  Q 134.99 1422.91 135.47 1423.56
  Q 140.11 1429.92 144.91 1435.99
  Q 147.26 1438.98 150.06 1439.17
  Q 168.60 1440.45 188.72 1442.05
  C 191.61 1442.28 194.20 1442.06 196.74 1440.28
  Q 200.97 1437.30 205.34 1434.12
  Q 274.26 1383.97 343.46 1334.03
  C 345.98 1332.21 348.61 1329.61 349.22 1326.55
  Q 357.35 1285.20 364.37 1249.69
  Q 365.33 1244.82 364.96 1238.78
  Q 364.93 1238.29 364.62 1237.90
  Q 362.99 1235.88 361.04 1234.80
  Q 345.64 1226.29 328.54 1216.80
  Q 325.81 1215.28 323.04 1215.19
  Q 319.66 1215.07 316.12 1216.11
  Q 285.94 1224.99 257.73 1233.60
  Q 256.97 1233.83 257.59 1233.34
  Z"
/>
<path fill="#ffffff" d="
  M 257.73 1233.60
  Q 285.94 1224.99 316.12 1216.11
  Q 319.66 1215.07 323.04 1215.19
  Q 325.81 1215.28 328.54 1216.80
  Q 345.64 1226.29 361.04 1234.80
  Q 362.99 1235.88 364.62 1237.90
  Q 364.93 1238.29 364.96 1238.78
  Q 365.33 1244.82 364.37 1249.69
  Q 357.35 1285.20 349.22 1326.55
  C 348.61 1329.61 345.98 1332.21 343.46 1334.03
  Q 274.26 1383.97 205.34 1434.12
  Q 200.97 1437.30 196.74 1440.28
  C 194.20 1442.06 191.61 1442.28 188.72 1442.05
  Q 168.60 1440.45 150.06 1439.17
  Q 147.26 1438.98 144.91 1435.99
  Q 140.11 1429.92 135.47 1423.56
  Q 134.99 1422.91 134.99 1422.10
  Q 135.06 1240.52 135.00 1057.52
  C 135.00 1054.64 138.36 1053.14 140.20 1051.46
  Q 159.52 1033.87 178.45 1016.78
  A 2.58 2.58 0.0 0 1 179.90 1016.13
  Q 185.50 1015.52 191.41 1016.91
  Q 239.77 1028.26 285.98 1039.08
  A 5.80 5.79 -85.8 0 1 290.44 1044.26
  Q 296.52 1119.60 302.24 1189.50
  Q 302.37 1191.12 302.18 1196.05
  Q 302.16 1196.54 301.86 1196.94
  Q 299.97 1199.49 297.88 1201.17
  Q 278.35 1216.92 257.59 1233.34
  Q 256.97 1233.83 257.73 1233.60
  Z
  M 242.25 1296.45
  Q 242.86 1296.64 242.87 1297.28
  L 242.90 1300.92
  Q 242.90 1301.59 242.42 1302.05
  L 206.69 1335.79
  Q 206.30 1336.16 205.77 1336.23
  Q 203.69 1336.51 202.01 1336.17
  C 199.94 1335.74 198.88 1333.73 198.98 1331.65
  Q 203.02 1252.81 206.88 1176.27
  C 206.96 1174.61 208.98 1173.06 210.61 1173.03
  Q 211.94 1173.00 213.13 1173.05
  Q 213.62 1173.07 213.98 1173.40
  Q 215.88 1175.11 216.36 1176.24
  Q 228.66 1205.48 241.08 1234.76
  Q 241.28 1235.26 241.70 1234.92
  L 293.39 1193.64
  A 1.93 1.90 68.7 0 0 294.10 1191.99
  L 282.38 1047.55
  Q 282.34 1047.10 281.90 1047.00
  L 184.49 1024.21
  A 2.26 2.24 -59.4 0 0 182.46 1024.74
  L 143.96 1059.65
  A 2.75 2.74 -21.1 0 0 143.05 1061.69
  L 143.05 1417.92
  Q 143.05 1418.93 143.66 1419.75
  L 151.32 1429.96
  A 3.01 2.98 73.6 0 0 153.50 1431.16
  L 188.74 1433.74
  A 4.94 4.94 0.0 0 0 192.00 1432.81
  Q 265.47 1379.53 339.21 1326.10
  Q 340.73 1325.00 341.10 1323.13
  Q 348.83 1283.79 356.82 1243.62
  A 1.25 1.24 19.9 0 0 356.19 1242.28
  L 322.53 1223.71
  A 1.22 1.20 -38.0 0 0 321.60 1223.60
  L 223.07 1253.00
  Q 222.63 1253.14 222.57 1253.60
  Q 219.81 1276.52 216.96 1298.24
  Q 216.93 1298.40 216.85 1298.54
  Q 216.76 1298.68 216.69 1298.82
  Q 216.45 1299.26 216.93 1299.14
  Q 226.21 1296.97 235.01 1295.04
  Q 237.37 1294.52 240.37 1294.78
  Q 240.93 1294.83 241.13 1295.36
  Q 241.42 1296.17 242.25 1296.45
  Z
  M 209.50 1291.28
  Q 211.46 1273.64 213.49 1256.48
  Q 213.84 1253.56 214.24 1250.81
  C 214.62 1248.21 216.80 1245.78 219.12 1245.06
  Q 225.33 1243.10 233.43 1240.83
  Q 233.94 1240.69 233.73 1240.20
  L 214.35 1194.49
  Q 214.08 1193.86 214.06 1194.55
  C 213.57 1210.24 212.29 1227.40 211.74 1243.99
  Q 210.97 1267.24 209.00 1291.39
  Q 208.99 1291.41 209.01 1291.41
  L 209.31 1291.44
  Q 209.48 1291.45 209.50 1291.28
  Z
  M 217.81 1307.81
  C 215.94 1308.24 213.95 1308.09 212.01 1308.15
  Q 211.48 1308.17 211.05 1307.87
  Q 209.61 1306.88 208.58 1304.78
  Q 208.53 1304.68 208.52 1304.79
  L 207.58 1322.98
  Q 207.56 1323.48 207.90 1323.11
  Q 208.44 1322.52 208.99 1321.98
  Q 215.98 1315.13 225.16 1306.70
  Q 225.89 1306.03 224.92 1306.23
  Q 220.98 1307.06 217.81 1307.81
  Z"
/>
<path fill="#d41b16" d="
  M 242.25 1296.45
  Q 241.42 1296.17 241.13 1295.36
  Q 240.93 1294.83 240.37 1294.78
  Q 237.37 1294.52 235.01 1295.04
  Q 226.21 1296.97 216.93 1299.14
  Q 216.45 1299.26 216.69 1298.82
  Q 216.76 1298.68 216.85 1298.54
  Q 216.93 1298.40 216.96 1298.24
  Q 219.81 1276.52 222.57 1253.60
  Q 222.63 1253.14 223.07 1253.00
  L 321.60 1223.60
  A 1.22 1.20 -38.0 0 1 322.53 1223.71
  L 356.19 1242.28
  A 1.25 1.24 19.9 0 1 356.82 1243.62
  Q 348.83 1283.79 341.10 1323.13
  Q 340.73 1325.00 339.21 1326.10
  Q 265.47 1379.53 192.00 1432.81
  A 4.94 4.94 0.0 0 1 188.74 1433.74
  L 153.50 1431.16
  A 3.01 2.98 73.6 0 1 151.32 1429.96
  L 143.66 1419.75
  Q 143.05 1418.93 143.05 1417.92
  L 143.05 1061.69
  A 2.75 2.74 -21.1 0 1 143.96 1059.65
  L 182.46 1024.74
  A 2.26 2.24 -59.4 0 1 184.49 1024.21
  L 281.90 1047.00
  Q 282.34 1047.10 282.38 1047.55
  L 294.10 1191.99
  A 1.93 1.90 68.7 0 1 293.39 1193.64
  L 241.70 1234.92
  Q 241.28 1235.26 241.08 1234.76
  Q 228.66 1205.48 216.36 1176.24
  Q 215.88 1175.11 213.98 1173.40
  Q 213.62 1173.07 213.13 1173.05
  Q 211.94 1173.00 210.61 1173.03
  C 208.98 1173.06 206.96 1174.61 206.88 1176.27
  Q 203.02 1252.81 198.98 1331.65
  C 198.88 1333.73 199.94 1335.74 202.01 1336.17
  Q 203.69 1336.51 205.77 1336.23
  Q 206.30 1336.16 206.69 1335.79
  L 242.42 1302.05
  Q 242.90 1301.59 242.90 1300.92
  L 242.87 1297.28
  Q 242.86 1296.64 242.25 1296.45
  Z"
/>
<path fill="#000000" fill-opacity="0.051" d="
  M 209.50 1291.28
  Q 209.48 1291.45 209.31 1291.44
  L 209.01 1291.41
  Q 208.99 1291.41 209.00 1291.39
  Q 210.97 1267.24 211.74 1243.99
  C 212.29 1227.40 213.57 1210.24 214.06 1194.55
  Q 214.08 1193.86 214.35 1194.49
  L 233.73 1240.20
  Q 233.94 1240.69 233.43 1240.83
  Q 225.33 1243.10 219.12 1245.06
  C 216.80 1245.78 214.62 1248.21 214.24 1250.81
  Q 213.84 1253.56 213.49 1256.48
  Q 211.46 1273.64 209.50 1291.28
  Z"
/>
<path fill="#000000" fill-opacity="0.051" d="
  M 217.81 1307.81
  Q 220.98 1307.06 224.92 1306.23
  Q 225.89 1306.03 225.16 1306.70
  Q 215.98 1315.13 208.99 1321.98
  Q 208.44 1322.52 207.90 1323.11
  Q 207.56 1323.48 207.58 1322.98
  L 208.52 1304.79
  Q 208.53 1304.68 208.58 1304.78
  Q 209.61 1306.88 211.05 1307.87
  Q 211.48 1308.17 212.01 1308.15
  C 213.95 1308.09 215.94 1308.24 217.81 1307.81
  Z"
/>
</svg>
